<?xml version="1.0" standalone="no"?>
<!DOCTYPE svg PUBLIC "-//W3C//DTD SVG 1.1//EN"
  "http://www.w3.org/Graphics/SVG/1.1/DTD/svg11.dtd">
<!-- Created with matplotlib (http://matplotlib.sourceforge.net/) -->
<svg width="585pt" height="441pt" viewBox="0 0 585 441"
   xmlns="http://www.w3.org/2000/svg"
   xmlns:xlink="http://www.w3.org/1999/xlink"
   version="1.1"
   id="svg1">
<g id="figure1">
<g id="patch1">
<path style="fill: #ffffff; stroke: #ffffff; stroke-width: 1.000000; stroke-linejoin: round; stroke-linecap: square;  opacity: 1.000000"  d="M0.000000 441.000000L585.000000 441.000000L585.000000 0.000000
L0.000000 0.000000L0.000000 441.000000"/>
</g>
<g id="axes1">
<g id="patch2">
<path style="fill: #ffffff; opacity: 1.000000"  d="M73.125000 396.900000L526.500000 396.900000L526.500000 44.100000
L73.125000 44.100000L73.125000 396.900000"/>
</g>
<g id="line2d1">
<defs>
  <clipPath id="pc3c5e41676658680e7b95047b5791c8e">
<rect x="73.125000" y="44.100000" width="453.375000" height="352.800000"/>
  </clipPath>
</defs><path style="fill: none; stroke: #0000ff; stroke-width: 1.000000; stroke-linejoin: round; stroke-linecap: square;  opacity: 1.000000" clip-path="url(#pc3c5e41676658680e7b95047b5791c8e)" d="M84.857419 63.371939L85.085473 63.371939L85.267399 82.939143
L85.403838 63.371939L85.813176 87.662261L86.131542 88.336993
L86.131542 88.336993L86.177025 89.686455L86.404434 63.371939
L86.449913 80.914950L86.540881 86.312799L86.586358 81.589681
L86.950208 63.371939L87.086658 89.011724L87.223100 63.371939
L87.450479 84.288605L87.495963 63.371939L87.768889 89.686455
L88.132739 86.312799L88.178227 63.371939L88.542065 84.963337
L88.905903 63.371939L89.178790 88.336993L89.224271 63.371939
L89.724562 74.167638L89.861008 63.371939L90.224862 86.312799
L90.361302 63.371939L90.634185 79.565487L90.816108 76.191831
L91.089006 85.638068L91.134485 64.046670L91.543822 89.686455
L91.816713 63.371939L92.059807 89.686455L92.194245 77.541294
L92.523439 63.371939L92.625539 87.662261L92.740793 63.371939
L93.051580 89.686455L93.073795 64.721401L93.331529 63.371939
L93.377016 83.613874L93.649924 63.371939L93.786361 88.336993
L94.013767 74.167638L94.241187 63.371939L94.332155 89.686455
L94.559569 74.167638L94.877939 63.371939L95.059881 87.662261
L95.196322 86.312799L95.378257 63.371939L95.925156 69.444519
L96.253746 63.371939L97.161638 68.769788L97.252611 63.371939
L97.480014 65.396132L97.525492 63.371939L97.570976 86.987530
L97.843886 63.371939L98.025826 83.613874L98.298730 82.939143
L98.571628 63.371939L99.390299 89.686455L99.435777 80.914950
L99.754153 63.371939L99.845115 84.288605L99.890595 63.371939
L100.254437 74.842369L100.481856 63.371939L100.618302 78.890756
L100.800221 64.721401L100.845699 63.371939L100.982149 84.288605
L101.027631 63.371939L101.527937 89.686455L101.800822 63.371939
L102.028230 68.769788L102.073709 63.371939L102.210161 82.939143
L102.255645 63.371939L102.755944 76.191831L102.983349 63.371939
L103.347219 89.686455L103.392697 84.963337L103.529133 63.371939
L103.756546 78.216025L103.802031 63.371939L104.120405 78.890756
L104.347810 63.371939L104.484277 66.070863L104.620714 63.371939
L104.757169 76.191831L104.802648 63.371939L105.257470 64.721401
L105.302954 63.371939L105.530356 81.589681L105.712275 77.541294
L106.030647 80.914950L106.030647 80.914950L106.303545 88.336993
L106.303545 88.336993L106.349023 89.686455L106.717546 63.371939
L106.995759 89.686455L107.137752 85.638068L107.183231 63.371939
L107.501595 76.866562L107.819966 63.371939L107.865450 66.745595
L108.138353 63.371939L108.274794 65.396132L108.320278 63.371939
L108.365756 75.517100L108.638648 63.371939L108.775090 68.769788
L108.866062 63.371939L109.093470 63.371939L109.639232 87.662261
L109.912113 63.371939L110.275962 81.589681L110.594327 63.371939
L110.958194 86.987530L111.003678 63.371939L111.367530 80.240218
L111.413015 63.371939L111.776869 66.070863L111.867827 63.371939
L112.004238 63.371939L112.368093 87.662261L112.686464 63.371939
L112.731952 82.939143L112.822914 63.371939L113.141285 66.745595
L113.186763 63.371939L113.505135 78.890756L113.823498 63.371939
L113.959933 89.686455L114.141869 66.070863L114.187347 63.371939
L114.232826 81.589681L114.460233 63.371939L114.642153 76.191831
L114.824082 89.011724L114.869567 84.288605L115.006012 63.371939
L115.233420 89.011724L115.278899 63.371939L115.506318 68.769788
L115.551808 63.371939L115.824700 83.613874L115.915657 71.468713
L115.961135 64.046670L116.279519 74.842369L116.370479 63.371939
L116.370479 63.371939L116.597889 69.444519L116.961753 86.987530
L117.234622 63.371939L117.644006 76.866562L117.689486 70.793982
L117.825930 63.371939L117.962372 89.011724L118.144273 83.613874
L118.417159 63.371939L118.690051 89.686455L118.962955 84.288605
L119.099397 63.371939L119.326798 87.662261L119.417760 64.721401
L119.463244 63.371939L119.781609 89.686455L120.145458 63.371939
L120.554796 76.866562L120.782200 63.371939L120.873172 71.468713
L120.964129 63.371939L121.191537 72.143444L121.373461 63.371939
L121.737316 89.011724L121.782800 77.541294L121.828278 63.371939
L122.055692 72.818175L122.146650 63.371939L122.374051 86.312799
L122.419530 63.371939L122.874349 70.119250L123.101765 63.371939
L123.465614 79.565487L123.693034 63.371939L124.102368 80.914950
L124.147846 74.842369L124.375254 75.517100L124.420738 72.143444
L124.602667 63.371939L124.693625 66.745595L124.739107 63.371939
L124.830069 85.638068L125.012005 63.371939L125.239410 84.963337
L125.330381 66.070863L125.375860 63.371939L125.694230 89.686455
L125.967117 63.371939L126.149042 76.866562L126.330966 74.167638
L126.649349 63.371939L126.740309 89.686455L127.058691 86.987530
L127.377056 63.371939L127.786390 87.662261L128.150238 63.371939
L128.195716 89.686455L128.332161 63.371939L128.696027 79.565487
L129.014392 63.371939L129.150840 89.011724L129.378241 83.613874
L129.605650 63.371939L129.787574 89.686455L129.924038 82.939143
L130.242878 63.371939L130.606842 84.288605L130.652354 63.371939
L130.970734 67.420326L131.016218 63.371939L131.425621 84.963337
L131.789475 63.371939L132.062366 89.011724L132.198806 84.963337
L132.380731 63.371939L132.608133 78.890756L132.653613 63.371939
L132.971980 76.866562L133.017461 71.468713L133.244863 63.371939
L133.608711 84.963337L133.881592 63.371939L134.063517 72.143444
L134.245437 69.444519L134.427354 63.371939L134.518317 87.662261
L134.745725 63.371939L135.200535 78.216025L135.473426 63.371939
L135.746320 87.662261L135.791798 63.371939L136.110163 78.216025
L136.292087 63.371939L136.428659 80.914950L136.519631 63.371939
L136.519631 63.371939L136.928965 68.095057L137.110889 63.371939
L137.156367 80.914950L137.429254 76.866562L137.611179 63.371939
L137.747619 89.011724L137.929547 63.371939L138.156953 87.662261
L138.338881 76.866562L138.520817 63.371939L138.611773 66.070863
L138.702737 63.371939L138.930138 64.721401L138.975618 63.371939
L139.066578 86.987530L139.112063 63.371939L139.566863 89.686455
L139.612346 74.167638L139.794272 63.371939L139.885232 67.420326
L139.976195 63.371939L140.203603 71.468713L140.521968 63.371939
L140.749365 81.589681L140.885805 67.420326L141.113213 63.371939
L141.431573 88.336993L141.477053 63.371939L141.795440 88.336993
L142.113814 63.371939L142.204771 82.939143L142.386697 63.371939
L142.887003 72.818175L143.159889 86.987530L143.296334 63.371939
L143.614699 88.336993L143.660183 63.371939L144.114977 68.095057
L144.296892 63.371939L144.615271 68.095057L144.933636 63.371939
L144.979115 76.191831L145.070071 63.371939L145.342958 68.095057
L145.388437 63.371939L145.570366 87.662261L145.706809 74.167638
L145.934204 63.371939L146.025171 89.011724L146.070649 63.371939
L146.298046 68.769788L146.525450 63.371939L146.616417 73.492906
L146.798326 63.371939L147.025727 89.686455L147.116691 80.914950
L147.162173 63.371939L147.480538 88.336993L147.707939 63.371939
L148.208242 86.312799L148.526605 89.686455L148.526605 89.686455
L148.981411 63.371939L149.390744 87.662261L149.663630 63.371939
L149.754592 68.095057L149.891028 63.371939L150.072969 65.396132
L150.163927 63.371939L150.254893 63.371939L150.482297 66.745595
L150.573258 63.371939L150.573258 63.371939L151.028036 66.745595
L151.119002 70.119250L151.119002 70.119250L151.209965 63.371939
L151.437367 78.216025L151.755749 63.371939L151.892189 70.793982
L152.165089 89.011724L152.301528 63.371939L152.528930 82.264412
L152.665373 67.420326L152.710854 63.371939L152.801823 88.336993
L152.983740 63.371939L153.120193 82.264412L153.393085 74.167638
L153.620494 81.589681L153.711451 66.745595L154.075300 84.963337
L154.257218 63.371939L154.757518 88.336993L155.121373 63.371939
L155.212336 81.589681L155.485223 76.191831L155.712635 63.371939
L156.212919 66.745595L156.258397 64.046670L156.576775 89.011724
L156.622230 63.371939L156.940604 67.420326L157.122525 63.371939
L157.258970 84.963337L157.577346 63.371939L157.986674 89.011724
L158.350595 63.371939L158.441552 89.011724L158.668965 68.095057
L158.714444 63.371939L158.941858 85.638068L159.032820 66.745595
L159.260234 63.371939L159.578593 86.987530L159.896924 63.371939
L160.169805 87.662261L160.215285 63.371939L160.397219 83.613874
L160.579143 70.793982L160.806541 63.371939L161.033950 72.818175
L161.170394 71.468713L161.488765 63.371939L161.534243 86.987530
L161.716167 63.371939L161.989048 74.842369L162.034532 63.371939
L162.216424 89.686455L162.352880 68.769788L162.489345 63.371939
L162.944160 76.191831L163.171574 63.371939L163.308016 84.288605
L163.535485 78.890756L163.808349 63.371939L163.944789 74.167638
L164.172191 69.444519L164.217676 63.371939L164.672471 89.686455
L164.854394 63.371939L165.172765 88.336993L165.354695 63.371939
L165.627581 78.890756L165.673059 70.119250L165.854995 87.662261
L165.854995 87.662261L165.900473 89.011724L165.945957 63.371939
L166.309812 83.613874L166.400770 63.371939L166.764617 70.119250
L166.810101 63.371939L167.082999 64.721401L167.173955 63.371939
L167.264917 63.371939L167.765202 89.011724L168.038092 63.371939
L168.447403 73.492906L168.583975 63.371939L168.811388 86.312799
L168.856866 63.371939L169.175234 65.396132L169.311671 73.492906
L169.311671 73.492906L169.539079 89.011724L169.584558 64.721401
L169.766478 63.371939L169.811960 73.492906L169.857439 63.371939
L170.221299 68.095057L170.585149 63.371939L170.767078 82.264412
L170.994486 73.492906L171.312851 63.371939L171.585737 88.336993
L171.631216 86.312799L171.949587 63.371939L172.040554 87.662261
L172.313452 83.613874L172.449892 63.371939L172.813742 89.686455
L172.859224 70.793982L173.041138 63.371939L173.450482 82.264412
L173.814393 63.371939L173.950846 87.662261L174.132763 72.818175
L174.360172 63.371939L174.633058 89.686455L174.769506 88.336993
L174.905945 63.371939L175.269788 65.396132L175.451724 78.890756
L175.497202 63.371939L175.815567 80.240218L175.861052 74.842369
L176.088448 63.371939L176.270372 78.890756L176.406824 63.371939
L176.679716 79.565487L176.952591 77.541294L177.316439 63.371939
L177.543844 89.011724L177.589322 63.371939L177.816736 76.191831
L177.907697 65.396132L177.953181 63.371939L178.135101 89.011724
L178.317018 69.444519L178.408005 64.046670L178.635428 63.371939
L178.635428 63.371939L179.044835 86.312799L179.090313 63.371939
L179.226749 64.046670L179.681564 80.240218L180.045407 63.371939
L180.318288 87.662261L180.409256 66.070863L180.454740 63.371939
L180.864078 87.662261L181.000524 63.371939L181.318889 89.011724
L181.637254 63.371939L181.773696 68.769788L182.046577 89.686455
L182.092059 63.371939L182.364934 84.963337L182.592338 80.240218
L182.819723 63.371939L182.910686 68.769788L183.001647 63.371939
L183.183568 67.420326L183.229055 63.371939L183.320012 88.336993
L183.410975 63.371939L183.729335 87.662261L183.774818 78.216025
L184.047839 63.371939L184.366204 78.890756L184.684569 63.371939
L185.002934 88.336993L185.275815 63.371939L185.548701 64.721401
L185.594180 63.371939L185.685144 88.336993L185.912545 63.371939
L186.276410 89.686455L186.321889 76.866562L186.549287 63.371939
L186.731205 86.312799L186.776689 63.371939L187.140531 71.468713
L187.186015 63.371939L187.868235 72.143444L188.141132 63.371939
L188.550459 89.686455L188.823340 63.371939L189.187262 89.011724
L189.232747 76.191831L189.551117 63.371939L189.733041 74.842369
L189.869486 70.793982L189.914968 63.371939L190.324293 71.468713
L190.642669 63.371939L191.006508 89.686455L191.051996 63.371939
L191.324888 64.046670L191.415856 63.371939L191.643253 74.842369
L192.007107 63.371939L192.052586 85.638068L192.325478 63.371939
L192.643878 84.963337L192.916765 63.371939L193.189650 76.866562
L193.235129 63.371939L193.962837 86.987530L194.008315 84.963337
L194.144761 87.662261L194.190276 64.046670L194.690636 89.011724
L194.736114 63.371939L195.236397 74.842369L195.463796 78.890756
L195.463796 78.890756L195.600241 76.191831L195.600241 76.191831
L195.873134 85.638068L195.873134 85.638068L196.282462 63.371939
L196.373428 80.240218L196.555342 63.371939L196.919195 76.191831
L197.101126 63.371939L197.419497 68.095057L197.646899 63.371939
L197.692379 84.963337L197.965265 63.371939L198.192672 66.070863
L198.238151 63.371939L198.738445 89.686455L199.102284 63.371939
L199.284201 89.011724L199.329717 63.371939L199.648108 80.914950
L199.966488 63.371939L200.057462 88.336993L200.284876 87.662261
L200.648753 63.371939L200.694237 78.216025L200.876178 63.371939
L201.240055 89.686455L201.603917 63.371939L202.058743 89.011724
L202.286169 63.371939L202.468094 89.686455L202.513576 63.371939
L202.831968 82.939143L203.059386 63.371939L203.377777 71.468713
L203.468745 63.371939L203.650686 70.793982L203.878096 63.371939
L203.969068 89.011724L204.196493 63.371939L204.332940 88.336993
L204.423904 63.371939L204.833269 89.686455L205.015203 63.371939
L205.379062 89.011724L205.742930 63.371939L205.879386 89.011724
L206.061312 63.371939L206.516151 68.769788L206.880028 89.686455
L207.152921 63.371939L207.653249 89.011724L208.017115 63.371939
L208.108085 81.589681L208.199056 63.371939L208.608481 89.686455
L208.699447 63.371939L209.017825 68.769788L209.154271 89.686455
L209.199755 80.240218L209.336211 89.011724L209.472665 84.288605
L209.791047 63.371939L210.018466 88.336993L210.200406 86.987530
L210.382364 63.371939L210.518816 64.046670L210.837217 89.011724
L211.201126 63.371939L211.246610 87.662261L211.383062 63.371939
L211.565003 65.396132L211.792429 89.686455L211.883391 69.444519
L211.928869 63.371939L212.201761 88.336993L212.247246 63.371939
L212.611088 78.216025L212.974931 63.371939L213.065905 89.686455
L213.202351 63.371939L213.475239 86.312799L213.520734 63.371939
L213.884610 68.095057L214.021067 63.371939L214.202991 78.216025
L214.384916 89.011724L214.475872 66.070863L214.566834 63.371939
L214.748759 63.371939L215.203553 89.686455L215.385483 63.371939
L215.931247 76.866562L216.295093 63.371939L216.840835 78.216025
L217.159197 63.371939L217.250160 89.686455L217.477568 74.842369
L217.523046 63.371939L218.023341 85.638068L218.205265 63.371939
L218.705567 81.589681L218.932968 63.371939L219.205855 73.492906
L219.251335 63.371939L219.387751 66.070863L219.433235 63.371939
L219.751611 89.011724L220.115467 63.371939L220.479320 69.444519
L220.797685 63.371939L221.116049 89.011724L221.161527 84.288605
L221.207007 63.371939L221.525378 64.046670L221.616344 63.371939
L221.843741 66.745595L222.116622 79.565487L222.344020 63.371939
L222.525943 89.686455L222.662389 68.095057L222.889799 70.793982
L222.889799 70.793982L223.026244 63.371939L223.208159 69.444519
L223.253641 63.371939L223.708459 80.914950L223.799465 63.371939
L224.163319 76.866562L224.299767 63.371939L224.481684 76.866562
L224.800049 89.686455L224.936466 63.371939L225.254837 68.095057
L225.391279 63.371939L225.709644 86.312799L225.982525 63.371939
L226.255440 89.011724L226.346406 75.517100L226.619298 63.371939
L226.710261 65.396132L226.801224 63.371939L226.801224 63.371939
L227.210555 82.939143L227.528937 63.371939L227.710867 89.011724
L227.847313 63.371939L228.074721 78.216025L228.120200 63.371939
L228.438564 80.914950L228.756931 63.371939L228.847897 78.216025
L229.075369 64.721401L229.257321 65.396132L229.257321 65.396132
L229.575691 71.468713L229.848578 79.565487L229.848578 79.565487
L230.166944 88.336993L230.212426 63.371939L230.576269 78.216025
L230.803678 89.686455L230.940112 64.721401L231.031037 68.095057
L231.031037 68.095057L231.121997 63.371939L231.303917 63.371939
L231.531321 76.191831L231.667770 71.468713L231.895172 63.371939
L232.031619 81.589681L232.077103 63.371939L232.531914 68.769788
L232.622876 63.371939L232.850273 63.371939L233.259601 89.011724
L233.623460 63.371939L233.668938 80.240218L233.805386 63.371939
L234.214762 72.818175L234.533133 63.371939L234.715057 89.011724
L234.896983 86.987530L235.215365 63.371939L235.624690 88.336993
L235.852093 63.371939L236.215930 89.011724L236.352367 63.371939
L236.625232 68.769788L236.989083 84.288605L237.171003 63.371939
L237.625819 89.686455L237.716776 63.371939L237.989668 68.769788
L238.171586 63.371939L238.262550 86.987530L238.535430 71.468713
L238.853795 63.371939L238.899278 85.638068L239.172175 63.371939
L239.581474 89.011724L239.854361 63.371939L240.263678 79.565487
L240.627519 63.371939L240.991363 89.011724L241.036842 63.371939
L241.355201 69.444519L241.446175 63.371939L241.582637 64.721401
L241.673605 63.371939L241.946487 88.336993L241.991969 66.745595
L242.128717 63.371939L242.174201 89.011724L242.356136 63.371939
L242.674506 77.541294L242.992871 80.914950L243.038350 64.721401
L243.083833 63.371939L243.265752 88.336993L243.402198 82.939143
L243.629619 63.371939L243.947988 80.240218L244.220869 63.371939
L244.539296 89.011724L244.903139 63.371939L245.039579 86.312799
L245.085063 63.371939L245.585348 81.589681L245.812757 63.371939
L246.222099 77.541294L246.267578 63.371939L246.631420 89.686455
L246.949798 63.371939L247.359135 89.686455L247.541061 63.371939
L247.722984 68.095057L248.086822 89.686455L248.359706 63.371939
L248.632590 89.011724L248.678078 83.613874L249.041921 63.371939
L249.314808 78.890756L249.451293 77.541294L249.815165 63.371939
L250.224486 86.987530L250.588331 63.371939L250.997656 84.288605
L251.361499 63.371939L251.679866 74.167638L251.952752 63.371939
L252.225632 64.721401L252.453034 89.686455L252.498518 63.371939
L252.816879 89.686455L253.135242 63.371939L253.362651 87.662261
L253.453618 86.312799L253.499096 63.371939L253.817456 89.011724
L253.862934 75.517100L254.135821 63.371939L254.363223 89.686455
L254.499659 71.468713L254.818062 63.371939L254.954503 85.638068
L255.136427 76.866562L255.409308 63.371939L255.773157 77.541294
L255.955081 63.371939L256.409886 84.288605L256.591805 63.371939
L256.773731 84.963337L256.819219 63.371939L257.046606 69.444519
L257.092089 63.371939L257.319494 89.686455L257.410451 80.914950
L257.683345 63.371939L258.183657 89.011724L258.229147 63.371939
L258.592990 72.818175L258.729436 63.371939L259.047812 89.011724
L259.320694 63.371939L259.593602 72.818175L259.598248 63.371939
L259.890763 89.686455L259.931856 89.011724L260.264123 63.371939
L260.472648 89.686455L260.566413 82.264412L260.839305 63.371939
L260.884783 89.011724L261.157648 68.095057L261.203131 63.371939
L261.476023 79.565487L261.521502 63.371939L261.748898 68.095057
L261.794384 63.371939L262.021785 89.686455L262.112749 63.371939
L262.476596 89.686455L262.522080 63.371939L262.840496 67.420326
L263.204346 89.686455L263.522714 63.371939L263.932047 89.686455
L264.204934 63.371939L264.432331 89.686455L264.568773 70.793982
L264.932621 63.371939L265.341958 87.662261L265.387437 63.371939
L265.705809 82.939143L265.978695 63.371939L266.251582 89.686455
L266.478994 85.638068L266.842862 63.371939L266.888344 86.312799
L267.161238 63.371939L267.479606 81.589681L267.707011 63.371939
L267.888945 84.963337L267.934440 63.371939L268.207356 67.420326
L268.252834 63.371939L268.571215 66.745595L268.616694 63.371939
L268.662172 89.011724L268.707650 63.371939L268.980537 74.167638
L269.026020 69.444519L269.253428 63.371939L269.298907 89.686455
L269.571811 84.963337L269.799219 63.371939L270.026622 89.686455
L270.163063 84.963337L270.526961 63.371939L270.845326 70.793982
L271.163690 63.371939L271.527529 89.686455L271.891373 63.371939
L272.164260 89.011724L272.209748 81.589681L272.255232 63.371939
L272.846489 72.818175L272.891967 63.371939L273.073899 67.420326
L273.301339 89.686455L273.392296 85.638068L273.619699 63.371939
L274.074534 73.492906L274.392904 63.371939L274.711273 89.686455
L274.756751 84.963337L275.075122 63.371939L275.302542 89.686455
L275.484467 89.011724L275.666390 63.371939L275.802827 67.420326
L275.893787 63.371939L276.075713 68.769788L276.212164 63.371939
L276.576012 83.613874L276.757943 63.371939L276.939856 87.662261
L277.076307 63.371939L277.349176 86.312799L277.440134 76.866562
L277.531095 63.371939L277.758493 87.662261L277.803981 63.371939
L278.122341 73.492906L278.304329 88.336993L278.349811 80.914950
L278.486252 63.371939L278.668176 89.011724L279.032031 63.371939
L279.259439 89.686455L279.304917 63.371939L279.714240 72.818175
L279.805206 67.420326L279.850685 63.371939L280.214563 85.638068
L280.547588 63.371939L280.870538 89.686455L280.881714 82.939143
L281.207561 63.371939L281.212200 72.143444L281.469256 63.371939
L281.514734 66.070863L281.560221 63.371939L281.696664 83.613874
L281.787632 63.371939L282.060518 66.070863L282.106004 63.371939
L282.151482 79.565487L282.424368 78.890756L282.469851 63.371939
L282.742737 71.468713L282.833705 63.371939L283.015623 63.371939
L283.243028 68.095057L283.333988 66.745595L283.515915 63.371939
L283.697838 87.662261L283.970730 81.589681L284.289157 63.371939
L284.516565 75.517100L284.562043 63.371939L284.789446 89.686455
L285.016814 81.589681L285.335186 63.371939L285.471633 89.011724
L285.653550 63.371939L285.880952 69.444519L285.926436 63.371939
L286.335760 71.468713L286.563166 63.371939L287.017954 84.963337
L287.245351 63.371939L287.518249 68.769788L287.609217 66.070863
L287.654708 63.371939L287.700205 87.662261L287.973107 76.866562
L288.018594 78.216025L288.291466 63.371939L288.564324 89.686455
L288.609806 63.371939L288.791720 86.312799L288.837205 63.371939
L289.019122 67.420326L289.064607 63.371939L289.337476 86.987530
L289.382961 63.371939L289.519411 73.492906L289.564890 63.371939
L290.156135 66.745595L290.292581 63.371939L290.292581 63.371939
L290.838371 89.686455L291.156736 63.371939L291.429618 88.336993
L291.520574 69.444519L291.702504 63.371939L292.157310 72.818175
L292.384746 63.371939L292.703105 68.095057L292.748585 63.371939
L292.839546 67.420326L292.930513 63.371939L293.157915 76.191831
L293.430791 63.371939L293.612719 89.686455L293.658199 63.371939
L293.885598 66.070863L293.931080 63.371939L294.067527 86.987530
L294.203966 63.371939L294.476853 77.541294L294.522331 63.371939
L294.931653 86.987530L295.204539 63.371939L295.522905 81.589681
L295.795797 63.371939L296.159639 76.191831L296.432537 63.371939
L296.705429 89.011724L296.796397 71.468713L297.069278 63.371939
L297.251198 89.686455L297.478607 80.914950L297.751499 63.371939
L297.887944 83.613874L298.069858 63.371939L298.342753 66.070863
L298.479195 81.589681L298.706603 75.517100L299.024967 63.371939
L299.161416 89.011724L299.343338 63.371939L299.707229 85.638068
L300.071098 63.371939L300.480454 84.288605L300.844315 63.371939
L301.026232 89.686455L301.071711 63.371939L301.344609 77.541294
L301.390094 63.371939L301.753952 80.240218L301.799437 63.371939
L302.117795 89.011724L302.254232 84.288605L302.481639 63.371939
L302.754549 86.312799L302.845518 63.371939L303.118404 75.517100
L303.345846 78.890756L303.345846 78.890756L303.664280 89.686455
L303.891727 63.371939L304.164687 89.011724L304.392112 74.842369
L304.528597 63.371939L304.710556 87.662261L304.892497 76.191831
L305.165406 63.371939L305.711286 65.396132L306.302755 86.987530
L306.666672 63.371939L307.667451 63.371939L308.076842 84.288605
L308.395282 63.371939L308.622707 77.541294L308.668197 63.371939
L309.032104 68.769788L309.214061 63.371939L309.259544 89.011724
L309.532476 66.745595L309.577962 63.371939L309.668944 86.987530
L309.941865 81.589681L309.987356 63.371939L310.214797 78.890756
L310.305778 63.371939L310.442244 86.312799L310.578714 63.371939
L310.760666 68.095057L310.988116 63.371939L311.079208 89.011724
L311.124697 63.371939L311.397635 67.420326L311.488609 63.371939
L311.716052 78.890756L311.943510 63.371939L312.034484 88.336993
L312.261927 70.119250L312.534859 63.371939L312.898906 88.336993
L313.217328 63.371939L313.262812 71.468713L313.444770 63.371939
L313.581258 89.011724L313.808692 72.818175L313.854178 63.371939
L314.309066 87.662261L314.672985 63.371939L315.036894 84.288605
L315.082389 63.371939L315.582764 70.119250L315.764724 63.371939
L315.992159 66.745595L316.037649 63.371939L316.083133 81.589681
L316.219600 63.371939L316.492550 85.638068L316.538040 63.371939
L317.038401 87.662261L317.265844 63.371939L317.493283 70.119250
L317.538770 63.371939L317.675233 64.721401L317.766212 63.371939
L317.766212 63.371939L318.221121 89.011724L318.494490 63.371939
L318.585462 69.444519L318.721963 63.371939L318.858502 81.589681
L319.040461 67.420326L319.085951 63.371939L319.495347 77.541294
L319.768279 63.371939L319.950235 89.011724L320.086700 86.312799
L320.359644 63.371939L320.769043 88.336993L321.041982 63.371939
L321.223933 71.468713L321.269422 63.371939L321.542354 65.396132
L321.951744 81.589681L322.270183 63.371939L322.315670 68.095057
L322.361162 63.371939L322.452146 66.070863L322.543127 63.371939
L322.770569 63.371939L322.998016 89.011724L323.134481 72.818175
L323.452897 63.371939L323.589365 86.312799L323.634854 63.371939
L323.953389 72.143444L323.998880 68.095057L324.044373 63.371939
L324.590261 68.095057L324.772225 63.371939L324.772225 63.371939
L325.136131 81.589681L325.363573 89.686455L325.500040 68.769788
L325.545524 63.371939L325.954927 89.011724L326.318836 63.371939
L326.546281 80.914950L326.591768 63.371939L327.001169 83.613874
L327.046659 80.240218L327.183122 63.371939L327.319586 84.288605
L327.410559 81.589681L327.410559 81.589681L327.456054 63.371939
L327.911358 70.119250L328.184290 63.371939L328.229781 89.686455
L328.275271 63.371939L328.548209 74.842369L328.593696 63.371939
L328.821147 70.793982L328.957620 67.420326L329.003138 63.371939
L329.367135 89.686455L329.458114 63.371939L329.731056 88.336993
L329.867525 78.890756L330.185940 63.371939L330.549863 82.939143
L330.595358 72.818175L330.640843 63.371939L331.095726 87.662261
L331.323175 63.371939L331.960020 89.011724L332.369430 63.371939
L332.778821 89.686455L333.051753 63.371939L333.097245 82.939143
L333.233709 63.371939L333.279194 78.216025L333.552132 63.371939
L333.597623 79.565487L333.688600 63.371939L334.097996 82.939143
L334.461907 63.371939L334.643865 89.011724L334.780328 78.216025
L334.962287 63.371939L335.554077 87.662261L335.781524 63.371939
L335.963477 88.336993L336.008973 63.371939L336.418368 68.769788
L336.782273 63.371939L336.918742 88.336993L336.964232 63.371939
L337.464606 88.336993L337.828513 63.371939L338.237912 76.866562
L338.283401 74.167638L338.556339 63.371939L338.601822 86.987530
L338.783776 63.371939L338.965729 85.638068L339.011213 63.371939
L339.329657 82.264412L339.693561 63.371939L340.011973 79.565487
L340.330387 63.371939L340.421369 86.312799L340.648800 63.371939
L340.876240 88.336993L341.012726 74.842369L341.058215 63.371939
L341.376631 89.011724L341.422116 63.371939L342.149938 76.191831
L342.331890 63.371939L342.695793 86.987530L342.923240 63.371939
L343.059713 68.095057L343.378122 63.371939L343.469104 89.011724
L343.696556 84.963337L343.787531 63.371939L344.242415 70.119250
L344.287904 66.745595L344.560837 63.371939L344.879253 89.686455
L345.243162 63.371939L345.470607 70.119250L345.516094 63.371939
L345.607080 89.686455L345.789022 63.371939L346.243912 72.143444
L346.562345 63.371939L346.607829 82.264412L346.880745 63.371939
L347.199170 79.565487L347.472098 63.371939L347.654054 86.312799
L347.699540 63.371939L348.063449 73.492906L348.245511 63.371939
L348.609429 89.686455L348.882355 63.371939L349.155282 73.492906
L349.337244 72.143444L349.610170 63.371939L350.110539 86.312799
L350.474457 63.371939L350.838356 86.987530L350.974823 63.371939
L351.293247 89.011724L351.657157 63.371939L351.793630 66.070863
L351.839116 63.371939L352.066557 83.613874L352.203021 80.914950
L352.475959 63.371939L352.839866 66.745595L353.067313 63.371939
L353.203787 88.336993L353.431223 87.662261L353.795133 63.371939
L354.204551 82.939143L354.477485 63.371939L354.795907 81.589681
L354.841399 68.095057L355.068839 63.371939L355.341770 89.011724
L355.432748 71.468713L355.478244 63.371939L355.796670 86.987530
L356.024140 63.371939L356.342557 88.336993L356.706456 63.371939
L356.842914 89.686455L356.979371 63.371939L357.525344 82.939143
L357.843761 63.371939L357.889256 89.686455L358.025719 63.371939
L358.298660 83.613874L358.480614 74.842369L358.662573 63.371939
L358.799041 89.686455L359.071967 79.565487L359.390382 63.371939
L359.799902 89.686455L359.845388 81.589681L360.163821 63.371939
L360.209315 88.336993L360.482247 63.371939L360.800685 88.336993
L360.982627 63.371939L361.164587 76.191831L361.346550 72.143444
L361.619473 63.371939L361.755946 80.914950L361.801441 63.371939
L362.165355 70.119250L362.210841 66.070863L362.301819 63.371939
L362.438282 63.371939L362.711210 86.987530L362.847677 78.216025
L363.075126 63.371939L363.393552 87.662261L363.757480 63.371939
L364.257855 72.143444L364.394321 63.371939L364.667252 66.070863
L364.758230 63.371939L364.985784 63.371939L365.349701 71.468713
L365.668124 63.371939L365.895577 78.216025L366.168520 74.167638
L366.395963 63.371939L366.623395 86.987530L366.805364 81.589681
L367.032801 63.371939L367.442197 88.336993L367.760623 63.371939
L368.079057 89.686455L368.397483 63.371939L368.715898 80.914950
L368.852356 63.371939L369.216269 81.589681L369.489203 63.371939
L369.853122 89.686455L369.898605 80.240218L370.217135 63.371939
L370.353604 87.662261L370.626532 82.939143L370.853973 63.371939
L370.944956 71.468713L371.081421 63.371939L371.081421 63.371939
L371.354648 66.745595L371.400143 63.371939L371.582095 87.662261
L371.764042 74.167638L371.946029 63.371939L372.037009 86.312799
L372.309946 72.143444L372.400931 63.371939L372.582878 63.371939
L372.855804 83.613874L372.901298 78.216025L373.128736 63.371939
L373.219720 82.939143L373.356189 63.371939L373.674607 89.011724
L373.993029 63.371939L374.220470 89.011724L374.402428 75.517100
L374.720843 63.371939L374.857317 86.987530L374.993780 63.371939
L375.494160 75.517100L375.858084 63.371939L375.903566 84.288605
L376.176481 65.396132L376.221973 63.371939L376.540398 68.095057
L376.858814 63.371939L377.131764 89.686455L377.177259 63.371939
L377.450197 86.312799L377.495685 63.371939L396.510952 63.371939
L397.147780 64.721401L397.238768 63.371939L397.284258 64.721401
L397.875628 68.095057L398.012096 66.070863L398.057587 68.095057
L398.285024 69.444519L398.375991 71.468713L398.512462 70.119250
L399.149300 75.517100L399.331256 76.191831L399.467725 76.191831
L399.604189 77.541294L399.649679 75.517100L399.968095 78.216025
L400.468474 80.914950L400.604942 79.565487L400.695920 80.914950
L400.968847 84.288605L401.014337 82.939143L401.105311 81.589681
L401.514717 86.987530L401.651187 84.963337L401.696681 86.987530
L401.878633 87.662261L401.924125 86.312799L401.969619 88.336993
L402.424543 91.035917L402.606496 88.336993L403.015891 93.060111
L403.061382 91.035917L403.243339 92.385380L403.743741 95.759036
L403.834715 93.734842L403.880200 95.759036L404.107647 98.457960
L404.244116 97.108498L404.380579 97.783229L404.471560 97.783229
L404.562543 100.482154L404.608027 99.132692L404.926449 101.156885
L405.108400 99.132692L405.153897 100.482154L405.745272 105.205272
L406.063706 103.181079L406.427617 107.229466L406.746051 105.205272
L406.837028 109.253660L406.928008 108.578928L407.200933 107.229466
L407.246423 108.578928L407.564853 111.277853L407.792294 110.603122
L407.837784 111.952584L407.974257 110.603122L408.065225 111.952584
L408.156199 113.302047L408.611089 114.651509L408.838548 118.025165
L408.884032 115.326240L409.839690 120.724090L410.021641 119.374627
L410.340063 122.073552L410.476526 120.049359L410.522021 122.073552
L410.794953 124.772477L410.931419 124.097746L411.022406 125.447208
L411.249850 122.748283L411.568283 126.121939L411.750234 124.097746
L411.795725 126.121939L412.114175 129.495595L412.205148 128.820864
L412.523575 127.471402L412.705527 130.170326L413.069455 131.519789
L413.114945 130.170326L413.524336 133.543982L413.706293 132.194520
L413.797262 133.543982L414.161177 136.242907L414.479571 133.543982
L414.843488 138.267101L414.979962 136.242907L415.070947 137.592370
L415.753280 141.640757L415.798775 138.941832L415.935249 140.291294
L416.162691 138.267101L416.299156 145.014413L416.390134 142.990219
L416.754057 141.640757L417.027000 146.363875L417.117973 142.990219
L417.254442 145.689144L417.390911 143.664950L417.481889 146.363875
L417.891296 149.737531L418.027760 148.388069L418.118742 149.062800
L418.118742 149.062800L418.437183 151.761724L418.528157 150.412262
L418.755610 148.388069L418.846586 150.412262L419.165001 153.785918
L419.483426 151.761724L419.756352 155.135380L419.801849 153.785918
L420.074814 155.135380L420.256774 156.484843L420.256774 156.484843
L420.484232 155.135380L420.529716 157.834305L420.620695 157.159574
L421.121071 158.509036L421.394009 161.882692L421.439481 160.533230
L421.530459 159.183768L421.666924 160.533230L421.894364 162.557424
L422.167301 163.232155L422.167301 163.232155L422.394743 161.882692
L422.440228 163.232155L422.713166 165.931079L422.758656 161.207961
L422.940613 165.931079L423.168067 167.955273L423.213556 165.931079
L423.577468 167.280542L423.759425 167.955273L423.759425 167.955273
L424.259766 171.328929L424.487222 167.955273L424.532709 171.328929
L424.714657 169.979467L424.805637 171.328929L425.124069 173.353123
L425.806385 175.377316L426.215787 174.027854L426.443229 176.726779
L426.534206 175.377316L426.761651 177.401510L426.898124 175.377316
L427.080075 177.401510L427.853390 181.449897L427.898873 180.100434
L428.126309 181.449897L428.171795 179.425703L428.262777 182.124628
L428.490225 180.775166L428.945121 184.148822L429.081601 182.124628
L429.127092 183.474090L429.490996 184.823553L429.627476 182.799359
L429.672960 184.148822L429.809430 185.498284L430.036895 186.847746
L430.082385 185.498284L430.309833 187.522478L430.355328 184.823553
L430.582770 187.522478L430.946676 186.173015L431.356092 190.896134
L431.492556 190.221402L431.720050 192.245596L431.856504 189.546671
L431.947492 191.570865L432.265922 190.221402L432.538867 193.595058
L432.675332 191.570865L432.720811 192.920327L432.948252 194.944521
L432.993743 193.595058L433.266675 191.570865L433.312166 193.595058
L433.676074 198.318177L433.767354 194.269789L434.040280 196.293983
L434.222267 198.318177L434.222267 198.318177L434.449704 196.293983
L434.722641 199.667639L434.768137 198.318177L434.904606 195.619252
L435.086563 196.968714L435.495971 201.017101L435.677940 198.318177
L435.768916 198.992908L436.314778 202.366564L436.542213 203.041295
L436.542213 203.041295L436.678682 201.691833L436.815151 203.041295
L437.179076 205.065489L437.224559 202.366564L437.406528 203.716026
L437.861440 206.414951L437.997897 207.764413L438.179860 205.065489
L438.452794 207.764413L438.543773 205.740220L438.634748 207.089682
L438.771227 206.414951L438.862202 208.439144L438.998670 207.089682
L439.044165 208.439144L439.180629 209.788607L439.271607 208.439144
L439.453562 207.089682L439.635524 211.138069L439.726498 209.113876
L439.999430 211.138069L440.317841 209.788607L440.636272 213.162263
L440.772736 211.138069L440.909206 213.162263L441.364548 214.511725
L441.501017 215.861188L441.592001 214.511725L441.910418 216.535919
L441.955908 213.836994L442.001392 215.186456L442.547255 216.535919
L442.729208 215.186456L442.774698 216.535919L443.002151 217.885381
L443.457179 220.584306L443.502673 219.234844L443.912085 217.210650
L444.321491 220.584306L444.639885 217.210650L444.776359 223.283231
L445.003807 220.584306L445.367718 222.608499L445.640645 224.632693
L445.822603 222.608499L445.913582 223.957962L446.322992 227.331618
L446.459463 223.283231L446.686921 224.632693L446.959865 227.331618
L447.187522 223.957962L447.233011 226.656887L447.414970 225.982155
L447.505951 227.331618L447.824372 228.681080L448.006335 230.705274
L448.097321 230.030543L448.279274 228.006349L448.370259 229.355811
L448.643191 232.729467L448.734165 231.380005L448.779655 228.006349
L448.870633 230.705274L449.189065 232.054736L449.461997 230.705274
L449.507507 232.054736L449.553079 233.404198L449.916992 230.705274
L450.007968 232.054736L450.508652 236.103123L450.827074 232.729467
L450.872567 234.078930L451.327452 238.127317L451.463925 237.452586
L451.554906 234.078930L451.782353 234.753661L452.146263 238.127317
L452.282732 238.802048L452.419190 238.127317L452.646628 236.777854
L452.965060 240.151510L453.056034 236.777854L453.283499 238.127317
L453.647411 239.476779L453.829380 240.826242L454.011331 239.476779
L454.056816 240.826242L454.238769 242.175704L454.602697 238.802048
L454.966688 244.199898L455.012179 242.175704L455.103162 243.525166
L455.376111 244.874629L455.421606 243.525166L455.603554 240.826242
L455.649048 243.525166L456.058467 246.224091L456.103956 243.525166
L456.331404 245.549360L456.467869 244.199898L456.695328 246.898822
L457.195711 248.248285L457.377671 245.549360L457.514139 246.898822
L457.741586 248.248285L457.969035 248.923016L458.105500 246.898822
L458.332954 250.947209L458.469420 248.248285L458.651373 246.898822
L458.924305 250.272478L459.015292 248.923016L459.242741 250.272478
L459.561162 248.923016L459.834233 252.296672L459.925216 250.947209
L460.198151 252.971403L460.243646 250.272478L460.516594 250.947209
L460.925996 254.320865L461.198938 255.670328L461.244430 252.971403
L461.517367 255.670328L461.562857 252.296672L461.744808 253.646134
L462.290689 258.369253L462.427158 255.670328L462.700101 257.019790
L462.745597 255.670328L462.882065 260.393446L463.064022 259.043984
L463.382451 255.670328L463.427946 257.019790L463.518921 258.369253
L463.609903 258.369253L463.973873 259.718715L464.246803 257.019790
L464.292294 258.369253L464.519736 260.393446L464.929132 259.043984
L465.293059 263.092371L465.338543 261.742908L465.793433 263.092371
L465.884423 261.742908L466.066413 263.092371L466.248340 264.441833
L466.384809 263.092371L466.657746 264.441833L466.885191 265.116564
L466.930669 263.767102L467.112627 265.116564L467.249095 263.092371
L467.294591 265.116564L467.567528 266.466027L467.794976 267.140758
L467.840472 264.441833L468.249962 268.490220L468.522894 265.791296
L468.750343 267.815489L468.795863 266.466027L468.977904 268.490220
L469.068888 268.490220L469.296338 269.164952L469.387316 267.815489
L469.569281 267.140758L469.614765 268.490220L469.887708 266.466027
L469.933197 268.490220L470.024172 267.815489L470.160640 269.164952
L470.297104 267.815489L470.342598 269.164952L470.797493 270.514414
L470.842985 269.164952L470.933967 270.514414L471.206905 269.164952
L471.525435 272.538608L471.570931 269.839683L471.889358 270.514414
L471.934848 272.538608L472.207796 271.863876L472.389760 273.213339
L472.571715 274.562801L472.662692 271.863876L473.072090 275.912263
L473.345036 271.863876L473.436021 273.213339L473.481510 274.562801
L473.799927 273.213339L474.209322 275.237532L474.573233 273.213339
L474.618728 277.261726L474.891660 276.586995L474.982639 274.562801
L475.119110 275.237532L475.392013 274.562801L475.437507 277.261726
L475.664945 279.285919L475.710432 275.912263L475.937876 278.611188
L476.074350 277.261726L476.165324 278.611188L476.347293 277.936457
L476.529245 279.285919L476.756690 281.310113L476.802173 279.285919
L476.984136 278.611188L477.166106 279.960651L477.621383 278.611188
L477.712364 277.936457L477.894338 279.285919L478.531201 281.984844
L478.849601 280.635382L479.031562 283.334307L479.077044 281.310113
L479.577475 284.683769L479.668465 281.984844L479.895915 282.659575
L480.350826 287.382694L480.396316 285.358500L480.942185 281.984844
L481.078653 286.033231L481.215117 284.683769L481.442564 286.033231
L481.670007 284.683769L481.806471 287.382694L481.897474 286.033231
L482.124921 287.382694L482.261394 286.033231L482.716281 288.732156
L482.898244 286.033231L483.034712 286.707963L483.307849 285.358500
L483.353344 287.382694L483.580792 288.732156L483.671782 287.382694
L483.762756 288.732156L483.808246 287.382694L484.217652 289.406887
L484.490584 287.382694L484.536072 288.732156L484.854489 287.382694
L485.354869 290.756350L485.400365 288.057425L485.582316 288.732156
L485.946234 291.431081L485.991723 288.732156L486.264666 290.756350
L486.446620 292.105812L486.810564 290.081618L487.128987 294.130006
L487.538389 291.431081L487.674862 293.455274L487.765841 292.780543
L487.993276 291.431081L488.038762 292.780543L488.357196 294.130006
L488.448173 292.780543L488.584648 296.154199L488.721117 295.479468
L489.130489 292.105812L489.448904 295.479468L489.721836 294.130006
L489.903795 297.503662L489.949285 295.479468L490.267700 296.828930
L490.358682 295.479468L490.586112 296.828930L490.768074 295.479468
L490.859049 296.828930L491.086502 295.479468L491.131992 296.828930
L491.268455 298.178393L491.495893 295.479468L491.586875 297.503662
L491.814319 296.154199L492.041763 300.877318L492.132745 298.853124
L492.405677 296.828930L492.769599 300.877318L492.860581 298.853124
L493.088016 300.202586L493.224491 301.552049L493.269986 298.853124
L493.542912 300.877318L493.770354 298.178393L493.861339 300.202586
L493.952325 298.853124L493.997808 300.877318L494.225273 299.527855
L494.316246 302.901511L494.361742 301.552049L494.589231 298.853124
L494.634715 300.877318L494.907673 302.226780L494.998654 300.877318
L495.317068 302.901511L495.362553 300.877318L495.408044 302.901511
L495.680987 301.552049L495.953931 303.576242L495.999413 300.877318
L496.044908 302.226780L496.317857 303.576242L496.499804 302.226780
L496.727264 300.877318L496.772747 304.250973L496.954706 303.576242
L497.045650 304.925705L497.364068 302.226780L497.409558 304.250973
L497.637006 303.576242L497.682496 304.925705L497.818987 306.949898
L497.955462 305.600436L498.137412 306.949898L498.182903 305.600436
L498.364825 304.250973L498.410311 305.600436L498.637758 304.925705
L498.683249 306.275167L498.819713 304.925705L498.956186 306.275167
L499.183639 305.600436L499.183639 305.600436L499.229124 304.250973
L499.274696 396.689147L506.680408 396.689147L506.680408 396.689147"/>
</g>
<g id="line2d2">
<path style="fill: none; stroke: #ff0000; stroke-width: 1.000000; stroke-linejoin: round; stroke-linecap: square;  opacity: 1.000000" clip-path="url(#pc3c5e41676658680e7b95047b5791c8e)" d="M84.857419 68.664032L85.130951 69.750791L85.358360 70.781733
L86.040579 68.486680L87.041180 68.084565L88.041775 67.247422
L90.042939 68.717166L91.043528 67.781961L91.816713 68.889808
L92.069077 66.707901L92.347282 68.760986L92.347282 68.760986
L92.740793 72.772349L92.877254 74.027347L92.973231 72.966128
L93.214972 65.344672L93.311234 68.686175L93.786361 70.848804
L94.286671 69.727796L94.696020 65.841202L95.696633 66.631747
L95.938485 67.706996L95.943483 66.580553L96.240926 71.402290
L96.251478 68.073131L97.252611 67.116502L97.752918 65.101073
L98.253246 66.347037L98.617112 69.959269L100.027034 66.552237
L101.027631 66.548622L101.436979 65.509218L102.255645 67.602984
L103.893003 65.421128L104.666198 66.456531L105.393911 72.075045
L105.894206 69.600635L106.258060 67.264716L106.777812 68.352692
L107.009668 66.204121L107.009668 66.204121L107.819966 67.232761
L108.092869 68.311781L109.093470 68.295713L109.730194 67.154365
L110.730768 66.545999L111.731391 66.877247L112.095201 65.815847
L113.004838 68.177837L113.778016 70.428763L114.414755 68.012894
L116.415963 66.875982L117.143662 70.252392L117.962372 69.242122
L118.599089 70.248312L120.054496 67.972239L121.055092 68.475277
L121.646355 66.012984L122.646938 66.311899L123.374652 68.610424
L124.102368 67.536199L124.784586 68.776660L125.785194 69.208342
L126.740309 70.210252L126.967723 71.336499L127.513492 69.201270
L127.695427 67.972044L128.241194 69.132845L129.241800 67.980701
L129.605650 66.892106L130.606842 67.490579L130.925256 69.703131
L131.562065 68.383548L131.743991 67.224910L132.471687 69.387225
L133.062939 68.384011L133.563233 69.478677L134.063517 68.407476
L135.064085 68.128366L136.064679 67.343771L136.383049 68.473519
L137.383775 68.013293L138.293403 66.926336L140.294565 66.779238
L140.749365 67.790028L141.568047 66.779876L142.159293 67.946800
L142.977969 65.695246L143.978554 65.844224L144.933636 69.102308
L145.524882 68.048640L148.526605 70.024548L149.163341 68.911793
L149.663630 65.664044L150.618736 67.785286L150.982586 68.932383
L151.983151 69.080509L152.983740 69.723729L153.529527 67.638810
L154.530104 67.560299L155.030410 65.250655L155.712635 66.536792
L156.303882 71.141449L157.486378 69.079795L157.986674 66.877871
L158.850892 68.990319L159.760489 66.812547L160.488177 69.050424
L161.488765 69.262447L161.716167 68.182591L162.398359 70.272042
L163.080611 67.096609L163.717387 69.374788L164.263154 68.193950
L165.263734 67.141349L165.854995 64.996038L166.719138 67.188399
L167.264917 66.086397L168.265479 66.693420L169.084275 65.538435
L170.221299 67.652944L170.539671 68.690911L171.540259 68.094661
L172.222491 67.084133L172.768263 68.226195L173.768915 68.184085
L174.405650 66.130172L175.406240 66.871683L177.179994 70.157968
L177.862214 67.839160L178.044143 66.792612L178.862905 68.014051
L179.863483 68.704253L180.818594 69.817100L182.819723 68.312863
L183.683856 69.444382L183.911257 70.472551L184.548131 68.282887
L185.184858 69.474823L185.776110 68.172653L186.230922 64.900336
L186.867650 65.938044L187.322451 69.134647L188.323051 68.322685
L189.005266 65.911350L192.007107 67.579176L192.370984 65.512723
L193.144171 67.904170L193.689945 66.880373L194.372256 68.030352
L194.645148 70.370611L195.418317 69.280719L196.055053 65.890485
L196.600827 66.998741L197.192093 65.864214L197.828817 68.133825
L198.056231 70.510480L199.056804 70.884435L199.966488 68.702148
L200.967146 68.381622L201.467475 67.363075L202.058743 68.420112
L203.059386 68.874931L204.060036 68.811580L204.651322 72.485934
L205.106161 71.212980L205.606482 67.213816L206.015829 68.228539
L207.016471 68.756828L207.425824 67.747032L208.062601 70.128142
L208.199056 71.171944L208.835894 70.025289L209.290727 71.216302
L210.291392 70.562878L211.064664 68.402088L211.519519 66.207656
L212.974931 69.504236L213.111390 70.620604L213.657180 69.336778
L213.930095 66.862554L214.566834 65.852267L215.567402 65.990023
L216.386050 68.327277L217.204681 67.308362L217.523046 66.269066
L218.523630 67.180330L219.023926 70.617012L219.296790 69.606572
L219.888057 70.638206L220.752206 68.327577L221.207007 69.484809
L221.980182 68.424238L222.389503 66.089800L223.208159 67.160176
L223.572017 69.437940L224.254281 68.281681L225.254837 68.983918
L225.800604 67.906235L226.801224 67.790343L228.074721 65.687298
L228.756931 66.924996L228.984406 68.079879L229.803094 69.226032
L230.439824 68.066191L230.894633 65.988652L231.713249 67.117304
L232.713834 67.795860L233.032198 66.779270L233.759906 68.988930
L234.760541 68.707962L235.761132 67.833280L236.625232 68.842080
L236.989083 67.722639L237.807743 68.830191L238.944762 66.760648
L239.945319 66.882976L240.854922 68.046418L241.628116 66.998315
L242.310652 69.365680L244.266345 66.152092L245.221504 67.255323
L245.858243 72.234753L247.586543 67.968694L248.587105 68.873937
L249.587769 68.528909L249.906127 67.408815L250.906690 67.875883
L251.452463 68.905428L252.453034 67.948544L253.135242 68.997692
L254.272267 66.887604L254.999981 67.950887L256.000559 67.584111
L256.910187 66.534509L258.456549 68.664810L259.457128 68.539793
L259.653898 67.441977L259.709697 68.484244L259.994059 71.521393
L260.030154 68.393549L260.124711 70.756437L260.351568 67.234872
L260.418786 64.540914L260.474870 65.706968L262.021785 68.865829
L263.022426 68.310241L263.886563 67.073177L264.113972 65.962354
L264.932621 66.996263L265.523877 70.218454L266.933822 66.897298
L267.206726 65.731288L268.025436 66.841924L268.707650 69.010248
L269.480848 67.967864L269.753735 66.934583L270.617924 69.291056
L270.845326 70.338160L271.436561 67.952314L271.573008 66.748709
L272.255232 69.356741L272.846489 66.934083L273.665177 68.250628
L274.392904 74.190894L274.802229 71.773211L275.211575 67.422701
L277.212726 68.899692L277.394655 69.948206L278.258849 68.942725
L278.577210 67.819160L279.577804 68.015234L280.216862 64.758237
L280.220472 65.914299L280.353708 64.878431L280.550541 65.832643
L280.791708 63.945808L280.894505 68.367130L280.935235 70.090812
L281.156569 68.350495L281.300323 67.271736L282.333410 67.453169
L282.833705 69.671875L283.424951 68.534558L284.243679 70.755506
L284.743968 68.547840L285.016814 66.257232L285.699034 67.316631
L286.699595 66.820806L287.290835 67.863012L288.700763 65.745532
L290.701903 67.343906L291.111258 66.268343L293.112432 67.610423
L293.840118 68.675984L294.022048 69.775391L295.022620 67.716754
L295.795797 68.778612L296.796397 69.140209L297.069278 67.952947
L298.069858 68.473267L298.706603 69.514633L298.934001 70.544178
L300.480454 66.216294L301.117190 68.546817L301.299119 69.701247
L302.299714 69.182858L303.072921 70.202887L303.982707 69.053029
L304.483099 65.474209L305.483851 66.381625L306.166282 64.047172
L306.666672 65.075098L307.030599 67.537104L307.940374 66.525644
L308.668197 68.612554L308.895639 69.654167L309.896378 69.136939
L310.533225 68.120258L311.534093 68.979579L312.534859 68.348356
L312.944397 67.263008L313.945160 67.476389L314.218092 66.470490
L316.219600 66.867199L316.992912 67.979529L318.358022 65.861055
L318.949484 67.923689L319.768279 66.922407L320.177691 65.833415
L321.041982 66.982113L321.860771 69.146330L322.634102 67.085992
L322.907033 65.941721L323.771319 67.201022L324.317326 70.533364
L325.318083 70.779568L325.636504 69.652647L326.637259 68.916273
L326.955686 66.664777L327.956851 67.775810L328.229781 70.127527
L330.549863 67.006790L331.323175 69.397350L331.732576 70.456782
L332.551383 69.376625L332.915289 66.916013L333.506641 67.965974
L333.688600 69.058819L334.325448 66.762363L335.326205 66.553078
L335.781524 67.633713L336.327393 66.574562L337.328144 66.791564
L338.692804 68.869065L339.693561 68.173016L340.466856 66.116170
L340.739775 64.978252L341.422116 66.050211L342.104445 69.190391
L342.741285 68.141623L343.105196 65.665729L344.105947 67.770787
L345.152184 65.674908L346.289404 67.706989L346.835258 66.681770
L347.608566 67.755841L348.336489 66.751648L349.064312 67.851205
L349.291755 68.998269L350.292494 69.022721L351.293247 68.672096
L351.748142 66.370872L352.430468 68.477130L352.930854 66.284567
L353.840624 67.369657L354.295532 69.536070L355.296280 69.528391
L356.115109 67.474835L356.933888 68.535780L357.934744 69.104889
L358.480614 71.554237L359.026474 74.736983L359.572333 73.592039
L360.163821 68.405152L361.028118 67.380677L362.028887 67.269848
L362.711210 66.097643L363.484527 67.151143L363.711992 68.274851
L364.712738 67.647729L365.349701 68.692268L366.350469 67.733187
L367.032801 69.909649L367.760623 67.719945L368.897847 69.899121
L369.898605 69.169802L370.353604 68.055655L371.354648 68.222073
L372.173482 71.416759L372.628367 70.295018L374.038515 68.100737
L375.039265 67.923504L375.221228 66.761380L375.949053 67.780153
L376.540398 66.759780L377.268233 63.497003L380.270643 63.371939
L395.282687 63.371939L396.283499 64.295890L397.329748 68.763007
L399.376740 78.848591L401.833150 90.360334L403.425314 97.005285
L407.246423 112.457642L415.707796 142.865014L416.663067 146.062319
L417.754823 150.284928L420.302257 158.920837L425.760906 176.010812
L430.537285 188.643844L431.492556 191.939632L432.675332 195.111290
L433.448632 197.288180L434.768137 199.306145L437.179076 205.854062
L439.862965 212.217371L442.774698 218.521322L443.912085 220.634638
L445.504181 224.855435L446.641427 227.028725L447.869861 230.169215
L449.962481 234.421568L452.100780 238.595716L453.874864 241.747424
L454.739241 243.816886L461.244430 255.250704L462.472653 257.307247
L468.249962 267.750737L469.250842 268.527061L472.071322 273.694539
L473.072090 274.052763L476.119833 279.247132L477.120611 280.010063
L479.304528 284.111372L480.305337 284.932131L480.896696 285.977206
L484.809004 289.747913L485.991723 291.881543L486.992519 292.616769
L488.175236 294.736146L492.678621 299.701778L493.269986 300.726838
L495.271585 302.532948L496.545298 304.609618L497.455042 305.643301
L497.773473 307.937768L497.955462 313.375539L497.955462 313.375539"/>
</g>
<g id="matplotlib.axis1">
<g id="xtick1">
<g id="line2d3">
<defs><path id="m30e32995789d870ad79a2e54c91cf9c6" d="M0.000000 0.000000L0.000000 -4.000000"/></defs>
<g ><use style="fill: none; stroke: #000000; stroke-width: 0.500000; stroke-linejoin: round; stroke-linecap: butt;  opacity: 1.000000" xlink:href="#m30e32995789d870ad79a2e54c91cf9c6" x="73.125000" y="396.900000"/>
</g></g>
<g id="line2d4">
<defs><path id="m9281cae24120827b11d5ea8a7ad3e96b" d="M0.000000 0.000000L0.000000 4.000000"/></defs>
<g ><use style="fill: none; stroke: #000000; stroke-width: 0.500000; stroke-linejoin: round; stroke-linecap: butt;  opacity: 1.000000" xlink:href="#m9281cae24120827b11d5ea8a7ad3e96b" x="73.125000" y="44.100000"/>
</g></g>
<g id="text1">
<defs>
<path id="c_bef35738d52871942e50b9de9b122bab" d="M31.781250 -34.625000q-7.031250 0.000000 -11.062500 3.765625q-4.015625 3.765625 -4.015625 10.343750q0.000000 6.593750 4.015625 10.359375q4.031250 3.765625 11.062500 3.765625q7.031250 0.000000 11.078125 -3.781250q4.062500 -3.796875 4.062500 -10.343750q0.000000 -6.578125 -4.031250 -10.343750q-4.015625 -3.765625 -11.109375 -3.765625M21.921875 -38.812500q-6.343750 -1.562500 -9.890625 -5.906250q-3.531250 -4.359375 -3.531250 -10.609375q0.000000 -8.734375 6.218750 -13.812500q6.234375 -5.078125 17.062500 -5.078125q10.890625 0.000000 17.093750 5.078125q6.203125 5.078125 6.203125 13.812500q0.000000 6.250000 -3.546875 10.609375q-3.531250 4.343750 -9.828125 5.906250q7.125000 1.656250 11.093750 6.500000q3.984375 4.828125 3.984375 11.796875q0.000000 10.609375 -6.468750 16.281250q-6.468750 5.656250 -18.531250 5.656250q-12.046875 0.000000 -18.531250 -5.656250q-6.468750 -5.671875 -6.468750 -16.281250q0.000000 -6.968750 4.000000 -11.796875q4.015625 -4.843750 11.140625 -6.500000M18.312500 -54.390625q0.000000 5.656250 3.531250 8.828125q3.546875 3.171875 9.937500 3.171875q6.359375 0.000000 9.937500 -3.171875q3.593750 -3.171875 3.593750 -8.828125q0.000000 -5.671875 -3.593750 -8.843750q-3.578125 -3.171875 -9.937500 -3.171875q-6.390625 0.000000 -9.937500 3.171875q-3.531250 3.171875 -3.531250 8.843750"/>
<path id="c_7a2040fe3b94fcd41d0a72c84e93b115" d="M31.781250 -66.406250q-7.609375 0.000000 -11.453125 7.500000q-3.828125 7.484375 -3.828125 22.531250q0.000000 14.984375 3.828125 22.484375q3.843750 7.500000 11.453125 7.500000q7.671875 0.000000 11.500000 -7.500000q3.843750 -7.500000 3.843750 -22.484375q0.000000 -15.046875 -3.843750 -22.531250q-3.828125 -7.500000 -11.500000 -7.500000M31.781250 -74.218750q12.265625 0.000000 18.734375 9.703125q6.468750 9.687500 6.468750 28.140625q0.000000 18.406250 -6.468750 28.109375q-6.468750 9.687500 -18.734375 9.687500q-12.250000 0.000000 -18.718750 -9.687500q-6.468750 -9.703125 -6.468750 -28.109375q0.000000 -18.453125 6.468750 -28.140625q6.468750 -9.703125 18.718750 -9.703125"/>
</defs>
<g style="fill: #000000; opacity: 1.000000" transform="translate(58.648438,409.806250)scale(0.120000)">
<use xlink:href="#c_bef35738d52871942e50b9de9b122bab"/>
<use xlink:href="#c_7a2040fe3b94fcd41d0a72c84e93b115" x="63.623047"/>
<use xlink:href="#c_7a2040fe3b94fcd41d0a72c84e93b115" x="127.246094"/>
<use xlink:href="#c_7a2040fe3b94fcd41d0a72c84e93b115" x="190.869141"/>
</g>
</g>
</g>
<g id="xtick2">
<g id="line2d5">
<g ><use style="fill: none; stroke: #000000; stroke-width: 0.500000; stroke-linejoin: round; stroke-linecap: butt;  opacity: 1.000000" xlink:href="#m30e32995789d870ad79a2e54c91cf9c6" x="163.800000" y="396.900000"/>
</g></g>
<g id="line2d6">
<g ><use style="fill: none; stroke: #000000; stroke-width: 0.500000; stroke-linejoin: round; stroke-linecap: butt;  opacity: 1.000000" xlink:href="#m9281cae24120827b11d5ea8a7ad3e96b" x="163.800000" y="44.100000"/>
</g></g>
<g id="text2">
<defs>
<path id="c_42baa63129a918535c52adb20d687ea7" d="M12.406250 -8.296875l16.109375 0.000000l0.000000 -55.625000l-17.531250 3.515625l0.000000 -8.984375l17.437500 -3.515625l9.859375 0.000000l0.000000 64.609375l16.109375 0.000000l0.000000 8.296875l-41.984375 0.000000z"/>
</defs>
<g style="fill: #000000; opacity: 1.000000" transform="translate(145.753125,409.806250)scale(0.120000)">
<use xlink:href="#c_42baa63129a918535c52adb20d687ea7"/>
<use xlink:href="#c_7a2040fe3b94fcd41d0a72c84e93b115" x="63.623047"/>
<use xlink:href="#c_7a2040fe3b94fcd41d0a72c84e93b115" x="127.246094"/>
<use xlink:href="#c_7a2040fe3b94fcd41d0a72c84e93b115" x="190.869141"/>
<use xlink:href="#c_7a2040fe3b94fcd41d0a72c84e93b115" x="254.492188"/>
</g>
</g>
</g>
<g id="xtick3">
<g id="line2d7">
<g ><use style="fill: none; stroke: #000000; stroke-width: 0.500000; stroke-linejoin: round; stroke-linecap: butt;  opacity: 1.000000" xlink:href="#m30e32995789d870ad79a2e54c91cf9c6" x="254.475000" y="396.900000"/>
</g></g>
<g id="line2d8">
<g ><use style="fill: none; stroke: #000000; stroke-width: 0.500000; stroke-linejoin: round; stroke-linecap: butt;  opacity: 1.000000" xlink:href="#m9281cae24120827b11d5ea8a7ad3e96b" x="254.475000" y="44.100000"/>
</g></g>
<g id="text3">
<defs>
<path id="c_ed3f3ed3ebfbd18bcb9c012009a68ad1" d="M19.187500 -8.296875l34.421875 0.000000l0.000000 8.296875l-46.281250 0.000000l0.000000 -8.296875q5.609375 -5.812500 15.296875 -15.593750q9.703125 -9.796875 12.187500 -12.640625q4.734375 -5.312500 6.609375 -9.000000q1.890625 -3.687500 1.890625 -7.250000q0.000000 -5.812500 -4.078125 -9.468750q-4.078125 -3.671875 -10.625000 -3.671875q-4.640625 0.000000 -9.796875 1.609375q-5.140625 1.609375 -11.000000 4.890625l0.000000 -9.968750q5.953125 -2.390625 11.125000 -3.609375q5.187500 -1.218750 9.484375 -1.218750q11.328125 0.000000 18.062500 5.671875q6.734375 5.656250 6.734375 15.125000q0.000000 4.500000 -1.687500 8.531250q-1.671875 4.015625 -6.125000 9.484375q-1.218750 1.421875 -7.765625 8.187500q-6.531250 6.765625 -18.453125 18.921875"/>
</defs>
<g style="fill: #000000; opacity: 1.000000" transform="translate(236.428125,409.806250)scale(0.120000)">
<use xlink:href="#c_42baa63129a918535c52adb20d687ea7"/>
<use xlink:href="#c_ed3f3ed3ebfbd18bcb9c012009a68ad1" x="63.623047"/>
<use xlink:href="#c_7a2040fe3b94fcd41d0a72c84e93b115" x="127.246094"/>
<use xlink:href="#c_7a2040fe3b94fcd41d0a72c84e93b115" x="190.869141"/>
<use xlink:href="#c_7a2040fe3b94fcd41d0a72c84e93b115" x="254.492188"/>
</g>
</g>
</g>
<g id="xtick4">
<g id="line2d9">
<g ><use style="fill: none; stroke: #000000; stroke-width: 0.500000; stroke-linejoin: round; stroke-linecap: butt;  opacity: 1.000000" xlink:href="#m30e32995789d870ad79a2e54c91cf9c6" x="345.150000" y="396.900000"/>
</g></g>
<g id="line2d10">
<g ><use style="fill: none; stroke: #000000; stroke-width: 0.500000; stroke-linejoin: round; stroke-linecap: butt;  opacity: 1.000000" xlink:href="#m9281cae24120827b11d5ea8a7ad3e96b" x="345.150000" y="44.100000"/>
</g></g>
<g id="text4">
<defs>
<path id="c_a0416418d96557a09b8c1332d34883ba" d="M37.796875 -64.312500l-24.906250 38.921875l24.906250 0.000000zM35.203125 -72.906250l12.406250 0.000000l0.000000 47.515625l10.406250 0.000000l0.000000 8.203125l-10.406250 0.000000l0.000000 17.187500l-9.812500 0.000000l0.000000 -17.187500l-32.906250 0.000000l0.000000 -9.515625z"/>
</defs>
<g style="fill: #000000; opacity: 1.000000" transform="translate(327.103125,409.806250)scale(0.120000)">
<use xlink:href="#c_42baa63129a918535c52adb20d687ea7"/>
<use xlink:href="#c_a0416418d96557a09b8c1332d34883ba" x="63.623047"/>
<use xlink:href="#c_7a2040fe3b94fcd41d0a72c84e93b115" x="127.246094"/>
<use xlink:href="#c_7a2040fe3b94fcd41d0a72c84e93b115" x="190.869141"/>
<use xlink:href="#c_7a2040fe3b94fcd41d0a72c84e93b115" x="254.492188"/>
</g>
</g>
</g>
<g id="xtick5">
<g id="line2d11">
<g ><use style="fill: none; stroke: #000000; stroke-width: 0.500000; stroke-linejoin: round; stroke-linecap: butt;  opacity: 1.000000" xlink:href="#m30e32995789d870ad79a2e54c91cf9c6" x="435.825000" y="396.900000"/>
</g></g>
<g id="line2d12">
<g ><use style="fill: none; stroke: #000000; stroke-width: 0.500000; stroke-linejoin: round; stroke-linecap: butt;  opacity: 1.000000" xlink:href="#m9281cae24120827b11d5ea8a7ad3e96b" x="435.825000" y="44.100000"/>
</g></g>
<g id="text5">
<defs>
<path id="c_cc8d6d580d1b10c8632f7a42cd53db8a" d="M33.015625 -40.375000q-6.640625 0.000000 -10.531250 4.546875q-3.875000 4.531250 -3.875000 12.437500q0.000000 7.859375 3.875000 12.437500q3.890625 4.562500 10.531250 4.562500q6.640625 0.000000 10.515625 -4.562500q3.875000 -4.578125 3.875000 -12.437500q0.000000 -7.906250 -3.875000 -12.437500q-3.875000 -4.546875 -10.515625 -4.546875M52.593750 -71.296875l0.000000 8.984375q-3.718750 -1.750000 -7.500000 -2.671875q-3.781250 -0.937500 -7.500000 -0.937500q-9.765625 0.000000 -14.921875 6.593750q-5.140625 6.593750 -5.875000 19.921875q2.875000 -4.250000 7.218750 -6.515625q4.359375 -2.265625 9.578125 -2.265625q10.984375 0.000000 17.359375 6.671875q6.375000 6.656250 6.375000 18.125000q0.000000 11.234375 -6.640625 18.031250q-6.640625 6.781250 -17.671875 6.781250q-12.656250 0.000000 -19.343750 -9.687500q-6.687500 -9.703125 -6.687500 -28.109375q0.000000 -17.281250 8.203125 -27.562500q8.203125 -10.281250 22.015625 -10.281250q3.718750 0.000000 7.500000 0.734375q3.781250 0.734375 7.890625 2.187500"/>
</defs>
<g style="fill: #000000; opacity: 1.000000" transform="translate(417.778125,409.806250)scale(0.120000)">
<use xlink:href="#c_42baa63129a918535c52adb20d687ea7"/>
<use xlink:href="#c_cc8d6d580d1b10c8632f7a42cd53db8a" x="63.623047"/>
<use xlink:href="#c_7a2040fe3b94fcd41d0a72c84e93b115" x="127.246094"/>
<use xlink:href="#c_7a2040fe3b94fcd41d0a72c84e93b115" x="190.869141"/>
<use xlink:href="#c_7a2040fe3b94fcd41d0a72c84e93b115" x="254.492188"/>
</g>
</g>
</g>
<g id="xtick6">
<g id="line2d13">
<g ><use style="fill: none; stroke: #000000; stroke-width: 0.500000; stroke-linejoin: round; stroke-linecap: butt;  opacity: 1.000000" xlink:href="#m30e32995789d870ad79a2e54c91cf9c6" x="526.500000" y="396.900000"/>
</g></g>
<g id="line2d14">
<g ><use style="fill: none; stroke: #000000; stroke-width: 0.500000; stroke-linejoin: round; stroke-linecap: butt;  opacity: 1.000000" xlink:href="#m9281cae24120827b11d5ea8a7ad3e96b" x="526.500000" y="44.100000"/>
</g></g>
<g id="text6">
<g style="fill: #000000; opacity: 1.000000" transform="translate(508.453125,409.806250)scale(0.120000)">
<use xlink:href="#c_42baa63129a918535c52adb20d687ea7"/>
<use xlink:href="#c_bef35738d52871942e50b9de9b122bab" x="63.623047"/>
<use xlink:href="#c_7a2040fe3b94fcd41d0a72c84e93b115" x="127.246094"/>
<use xlink:href="#c_7a2040fe3b94fcd41d0a72c84e93b115" x="190.869141"/>
<use xlink:href="#c_7a2040fe3b94fcd41d0a72c84e93b115" x="254.492188"/>
</g>
</g>
</g>
<g id="text7">
<defs>
<path id="c_0f8c41144cfbf448378cb6fd1cc8e549" d="M18.312500 -70.218750l0.000000 15.531250l18.500000 0.000000l0.000000 6.984375l-18.500000 0.000000l0.000000 29.687500q0.000000 6.687500 1.828125 8.593750q1.828125 1.906250 7.453125 1.906250l9.218750 0.000000l0.000000 7.515625l-9.218750 0.000000q-10.406250 0.000000 -14.359375 -3.875000q-3.953125 -3.890625 -3.953125 -14.140625l0.000000 -29.687500l-6.593750 0.000000l0.000000 -6.984375l6.593750 0.000000l0.000000 -15.531250z"/>
<path id="c_6a63bda47b2f3da1cec6aadd80692cfe" d="M9.421875 -54.687500l8.984375 0.000000l0.000000 54.687500l-8.984375 0.000000zM9.421875 -75.984375l8.984375 0.000000l0.000000 11.390625l-8.984375 0.000000z"/>
<path id="c_4653c6dfde66c7610eae0911760d3490" d="M52.000000 -44.187500q3.375000 -6.062500 8.062500 -8.937500q4.687500 -2.875000 11.031250 -2.875000q8.546875 0.000000 13.187500 5.984375q4.640625 5.968750 4.640625 17.000000l0.000000 33.015625l-9.031250 0.000000l0.000000 -32.718750q0.000000 -7.859375 -2.796875 -11.656250q-2.781250 -3.812500 -8.484375 -3.812500q-6.984375 0.000000 -11.046875 4.640625q-4.046875 4.625000 -4.046875 12.640625l0.000000 30.906250l-9.031250 0.000000l0.000000 -32.718750q0.000000 -7.906250 -2.781250 -11.687500q-2.781250 -3.781250 -8.593750 -3.781250q-6.890625 0.000000 -10.953125 4.656250q-4.046875 4.656250 -4.046875 12.625000l0.000000 30.906250l-9.031250 0.000000l0.000000 -54.687500l9.031250 0.000000l0.000000 8.500000q3.078125 -5.031250 7.375000 -7.421875q4.296875 -2.390625 10.203125 -2.390625q5.968750 0.000000 10.140625 3.031250q4.171875 3.015625 6.171875 8.781250"/>
<path id="c_0bce5afba2dc6b9024b26277c38ad8e8" d="M56.203125 -29.593750l0.000000 4.390625l-41.312500 0.000000q0.593750 9.281250 5.593750 14.140625q5.000000 4.859375 13.937500 4.859375q5.171875 0.000000 10.031250 -1.265625q4.859375 -1.265625 9.656250 -3.812500l0.000000 8.500000q-4.843750 2.046875 -9.921875 3.125000q-5.078125 1.078125 -10.296875 1.078125q-13.093750 0.000000 -20.734375 -7.609375q-7.640625 -7.625000 -7.640625 -20.625000q0.000000 -13.421875 7.250000 -21.296875q7.250000 -7.890625 19.562500 -7.890625q11.031250 0.000000 17.453125 7.109375q6.421875 7.093750 6.421875 19.296875M47.218750 -32.234375q-0.093750 -7.359375 -4.125000 -11.750000q-4.031250 -4.406250 -10.671875 -4.406250q-7.515625 0.000000 -12.031250 4.250000q-4.515625 4.250000 -5.203125 11.968750z"/>
<path id="c_d41d8cd98f00b204e9800998ecf8427e" d=""/>
<path id="c_73b12fe3945075d29fe0cc9a468fa31e" d="M37.109375 -75.984375l0.000000 7.484375l-8.593750 0.000000q-4.828125 0.000000 -6.718750 1.953125q-1.875000 1.953125 -1.875000 7.031250l0.000000 4.828125l14.796875 0.000000l0.000000 6.984375l-14.796875 0.000000l0.000000 47.703125l-9.031250 0.000000l0.000000 -47.703125l-8.593750 0.000000l0.000000 -6.984375l8.593750 0.000000l0.000000 -3.812500q0.000000 -9.125000 4.250000 -13.296875q4.250000 -4.187500 13.468750 -4.187500z"/>
<path id="c_6ec8d5749226675394676a5d2a3b468b" d="M41.109375 -46.296875q-1.515625 -0.875000 -3.296875 -1.281250q-1.781250 -0.421875 -3.921875 -0.421875q-7.625000 0.000000 -11.703125 4.953125q-4.078125 4.953125 -4.078125 14.234375l0.000000 28.812500l-9.031250 0.000000l0.000000 -54.687500l9.031250 0.000000l0.000000 8.500000q2.843750 -4.984375 7.375000 -7.390625q4.546875 -2.421875 11.046875 -2.421875q0.921875 0.000000 2.046875 0.125000q1.125000 0.109375 2.484375 0.359375z"/>
<path id="c_f05dd90d41f04bb96ef1ca503cc2044b" d="M30.609375 -48.390625q-7.218750 0.000000 -11.421875 5.640625q-4.203125 5.640625 -4.203125 15.453125q0.000000 9.812500 4.171875 15.453125q4.187500 5.640625 11.453125 5.640625q7.187500 0.000000 11.375000 -5.656250q4.203125 -5.671875 4.203125 -15.437500q0.000000 -9.718750 -4.203125 -15.406250q-4.187500 -5.687500 -11.375000 -5.687500M30.609375 -56.000000q11.718750 0.000000 18.406250 7.625000q6.703125 7.609375 6.703125 21.078125q0.000000 13.421875 -6.703125 21.078125q-6.687500 7.640625 -18.406250 7.640625q-11.765625 0.000000 -18.437500 -7.640625q-6.656250 -7.656250 -6.656250 -21.078125q0.000000 -13.468750 6.656250 -21.078125q6.671875 -7.625000 18.437500 -7.625000"/>
<path id="c_f15a64fcd463ef4629c48bab42cde24c" d="M18.109375 -8.203125l0.000000 29.000000l-9.031250 0.000000l0.000000 -75.484375l9.031250 0.000000l0.000000 8.296875q2.843750 -4.875000 7.156250 -7.234375q4.328125 -2.375000 10.328125 -2.375000q9.968750 0.000000 16.187500 7.906250q6.234375 7.906250 6.234375 20.796875q0.000000 12.890625 -6.234375 20.812500q-6.218750 7.906250 -16.187500 7.906250q-6.000000 0.000000 -10.328125 -2.375000q-4.312500 -2.375000 -7.156250 -7.250000M48.687500 -27.296875q0.000000 -9.906250 -4.078125 -15.546875q-4.078125 -5.640625 -11.203125 -5.640625q-7.140625 0.000000 -11.218750 5.640625q-4.078125 5.640625 -4.078125 15.546875q0.000000 9.906250 4.078125 15.546875q4.078125 5.640625 11.218750 5.640625q7.125000 0.000000 11.203125 -5.640625q4.078125 -5.640625 4.078125 -15.546875"/>
<path id="c_d650c37394b681142a10dfc54356d478" d="M48.781250 -52.593750l0.000000 8.406250q-3.812500 -2.109375 -7.640625 -3.156250q-3.828125 -1.046875 -7.734375 -1.046875q-8.750000 0.000000 -13.593750 5.546875q-4.828125 5.531250 -4.828125 15.546875q0.000000 10.015625 4.828125 15.562500q4.843750 5.531250 13.593750 5.531250q3.906250 0.000000 7.734375 -1.046875q3.828125 -1.046875 7.640625 -3.156250l0.000000 8.312500q-3.765625 1.750000 -7.796875 2.625000q-4.015625 0.890625 -8.562500 0.890625q-12.359375 0.000000 -19.640625 -7.765625q-7.265625 -7.765625 -7.265625 -20.953125q0.000000 -13.375000 7.343750 -21.031250q7.359375 -7.671875 20.156250 -7.671875q4.140625 0.000000 8.093750 0.859375q3.953125 0.843750 7.671875 2.546875"/>
<path id="c_74d54c94aa871ec39e2bc6697dde6c00" d="M54.890625 -33.015625l0.000000 33.015625l-8.984375 0.000000l0.000000 -32.718750q0.000000 -7.765625 -3.031250 -11.609375q-3.031250 -3.859375 -9.078125 -3.859375q-7.281250 0.000000 -11.484375 4.640625q-4.203125 4.625000 -4.203125 12.640625l0.000000 30.906250l-9.031250 0.000000l0.000000 -75.984375l9.031250 0.000000l0.000000 29.796875q3.234375 -4.937500 7.593750 -7.375000q4.375000 -2.437500 10.093750 -2.437500q9.421875 0.000000 14.250000 5.828125q4.843750 5.828125 4.843750 17.156250"/>
<path id="c_7efa9804c2b4c09a4b614b91fdebee3d" d="M31.000000 -75.875000q-6.531250 11.218750 -9.718750 22.218750q-3.171875 10.984375 -3.171875 22.265625q0.000000 11.265625 3.203125 22.328125q3.203125 11.062500 9.687500 22.250000l-7.812500 0.000000q-7.312500 -11.484375 -10.953125 -22.562500q-3.640625 -11.078125 -3.640625 -22.015625q0.000000 -10.890625 3.609375 -21.921875q3.625000 -11.046875 10.984375 -22.562500z"/>
<path id="c_8e0810ad13fe20a2a87a2619799b154d" d="M44.281250 -53.078125l0.000000 8.500000q-3.796875 -1.953125 -7.906250 -2.921875q-4.093750 -0.984375 -8.500000 -0.984375q-6.687500 0.000000 -10.031250 2.046875q-3.343750 2.046875 -3.343750 6.156250q0.000000 3.125000 2.390625 4.906250q2.390625 1.781250 9.625000 3.390625l3.078125 0.687500q9.562500 2.046875 13.593750 5.781250q4.031250 3.734375 4.031250 10.421875q0.000000 7.625000 -6.031250 12.078125q-6.031250 4.437500 -16.578125 4.437500q-4.390625 0.000000 -9.156250 -0.859375q-4.765625 -0.859375 -10.031250 -2.562500l0.000000 -9.281250q4.984375 2.593750 9.812500 3.890625q4.828125 1.281250 9.578125 1.281250q6.343750 0.000000 9.750000 -2.171875q3.421875 -2.171875 3.421875 -6.125000q0.000000 -3.656250 -2.468750 -5.609375q-2.453125 -1.953125 -10.812500 -3.765625l-3.125000 -0.734375q-8.343750 -1.750000 -12.062500 -5.390625q-3.703125 -3.640625 -3.703125 -9.984375q0.000000 -7.718750 5.468750 -11.906250q5.468750 -4.203125 15.531250 -4.203125q4.968750 0.000000 9.359375 0.734375q4.406250 0.718750 8.109375 2.187500"/>
<path id="c_e96974be642f6eac0427d72f9cec6c19" d="M8.015625 -75.875000l7.812500 0.000000q7.312500 11.515625 10.953125 22.562500q3.640625 11.031250 3.640625 21.921875q0.000000 10.937500 -3.640625 22.015625q-3.640625 11.078125 -10.953125 22.562500l-7.812500 0.000000q6.484375 -11.187500 9.687500 -22.250000q3.203125 -11.062500 3.203125 -22.328125q0.000000 -11.281250 -3.203125 -22.265625q-3.203125 -11.000000 -9.687500 -22.218750"/>
</defs>
<g style="fill: #000000; opacity: 1.000000" transform="translate(242.898438,424.103125)scale(0.120000)">
<use xlink:href="#c_0f8c41144cfbf448378cb6fd1cc8e549"/>
<use xlink:href="#c_6a63bda47b2f3da1cec6aadd80692cfe" x="39.208984"/>
<use xlink:href="#c_4653c6dfde66c7610eae0911760d3490" x="66.992188"/>
<use xlink:href="#c_0bce5afba2dc6b9024b26277c38ad8e8" x="164.404297"/>
<use xlink:href="#c_d41d8cd98f00b204e9800998ecf8427e" x="225.927734"/>
<use xlink:href="#c_73b12fe3945075d29fe0cc9a468fa31e" x="257.714844"/>
<use xlink:href="#c_6ec8d5749226675394676a5d2a3b468b" x="292.919922"/>
<use xlink:href="#c_f05dd90d41f04bb96ef1ca503cc2044b" x="331.783203"/>
<use xlink:href="#c_4653c6dfde66c7610eae0911760d3490" x="392.964844"/>
<use xlink:href="#c_d41d8cd98f00b204e9800998ecf8427e" x="490.376953"/>
<use xlink:href="#c_0bce5afba2dc6b9024b26277c38ad8e8" x="522.164062"/>
<use xlink:href="#c_f15a64fcd463ef4629c48bab42cde24c" x="583.687500"/>
<use xlink:href="#c_f05dd90d41f04bb96ef1ca503cc2044b" x="647.164062"/>
<use xlink:href="#c_d650c37394b681142a10dfc54356d478" x="708.345703"/>
<use xlink:href="#c_74d54c94aa871ec39e2bc6697dde6c00" x="763.326172"/>
<use xlink:href="#c_7efa9804c2b4c09a4b614b91fdebee3d" x="826.705078"/>
<use xlink:href="#c_8e0810ad13fe20a2a87a2619799b154d" x="865.718750"/>
<use xlink:href="#c_e96974be642f6eac0427d72f9cec6c19" x="917.818359"/>
</g>
</g>
<g id="text8">
<defs>
<path id="c_5190dbc1cdbe53cbdd605e1721869cb7" d="M46.000000 -62.703125l0.000000 27.203125l27.187500 0.000000l0.000000 8.296875l-27.187500 0.000000l0.000000 27.203125l-8.203125 0.000000l0.000000 -27.203125l-27.203125 0.000000l0.000000 -8.296875l27.203125 0.000000l0.000000 -27.203125z"/>
<path id="c_ed3e21196fb739f392806f09ca0594ef" d="M10.687500 -12.406250l10.312500 0.000000l0.000000 12.406250l-10.312500 0.000000z"/>
<path id="c_3dcfa38a02242cb63ec6726c6e70be7a" d="M40.578125 -39.312500q7.078125 1.515625 11.046875 6.312500q3.984375 4.781250 3.984375 11.812500q0.000000 10.781250 -7.421875 16.703125q-7.421875 5.906250 -21.093750 5.906250q-4.578125 0.000000 -9.437500 -0.906250q-4.859375 -0.906250 -10.031250 -2.718750l0.000000 -9.515625q4.093750 2.390625 8.968750 3.609375q4.890625 1.218750 10.218750 1.218750q9.265625 0.000000 14.125000 -3.656250q4.859375 -3.656250 4.859375 -10.640625q0.000000 -6.453125 -4.515625 -10.078125q-4.515625 -3.640625 -12.562500 -3.640625l-8.500000 0.000000l0.000000 -8.109375l8.890625 0.000000q7.265625 0.000000 11.125000 -2.906250q3.859375 -2.906250 3.859375 -8.375000q0.000000 -5.609375 -3.984375 -8.609375q-3.968750 -3.015625 -11.390625 -3.015625q-4.062500 0.000000 -8.703125 0.890625q-4.640625 0.875000 -10.203125 2.718750l0.000000 -8.781250q5.625000 -1.562500 10.531250 -2.343750q4.906250 -0.781250 9.250000 -0.781250q11.234375 0.000000 17.765625 5.109375q6.546875 5.093750 6.546875 13.781250q0.000000 6.062500 -3.468750 10.234375q-3.468750 4.171875 -9.859375 5.781250"/>
<path id="c_956f18cfdaf972f35a6c2b4aaac2532b" d="M8.203125 -72.906250l46.875000 0.000000l0.000000 4.203125l-26.468750 68.703125l-10.296875 0.000000l24.906250 -64.593750l-35.015625 0.000000z"/>
<path id="c_cd96f817f3cab988d24a2b49a5577fe6" d="M10.984375 -1.515625l0.000000 -8.984375q3.718750 1.765625 7.515625 2.687500q3.812500 0.921875 7.484375 0.921875q9.765625 0.000000 14.906250 -6.562500q5.156250 -6.562500 5.890625 -19.953125q-2.828125 4.203125 -7.187500 6.453125q-4.343750 2.250000 -9.609375 2.250000q-10.937500 0.000000 -17.312500 -6.609375q-6.375000 -6.625000 -6.375000 -18.109375q0.000000 -11.218750 6.640625 -18.000000q6.640625 -6.796875 17.671875 -6.796875q12.656250 0.000000 19.312500 9.703125q6.671875 9.687500 6.671875 28.140625q0.000000 17.234375 -8.187500 27.515625q-8.171875 10.281250 -21.984375 10.281250q-3.718750 0.000000 -7.531250 -0.734375q-3.796875 -0.734375 -7.906250 -2.203125M30.609375 -32.421875q6.640625 0.000000 10.515625 -4.531250q3.890625 -4.546875 3.890625 -12.468750q0.000000 -7.859375 -3.890625 -12.421875q-3.875000 -4.562500 -10.515625 -4.562500q-6.640625 0.000000 -10.515625 4.562500q-3.875000 4.562500 -3.875000 12.421875q0.000000 7.921875 3.875000 12.468750q3.875000 4.531250 10.515625 4.531250"/>
</defs>
<g style="fill: #000000; opacity: 1.000000" transform="translate(453.859375,421.884375)scale(0.120000)">
<use xlink:href="#c_5190dbc1cdbe53cbdd605e1721869cb7"/>
<use xlink:href="#c_42baa63129a918535c52adb20d687ea7" x="83.789062"/>
<use xlink:href="#c_ed3e21196fb739f392806f09ca0594ef" x="147.412109"/>
<use xlink:href="#c_3dcfa38a02242cb63ec6726c6e70be7a" x="179.199219"/>
<use xlink:href="#c_7a2040fe3b94fcd41d0a72c84e93b115" x="242.822266"/>
<use xlink:href="#c_42baa63129a918535c52adb20d687ea7" x="306.445312"/>
<use xlink:href="#c_42baa63129a918535c52adb20d687ea7" x="370.068359"/>
<use xlink:href="#c_956f18cfdaf972f35a6c2b4aaac2532b" x="433.691406"/>
<use xlink:href="#c_0bce5afba2dc6b9024b26277c38ad8e8" x="497.314453"/>
<use xlink:href="#c_cd96f817f3cab988d24a2b49a5577fe6" x="558.837891"/>
</g>
</g>
</g>
<g id="matplotlib.axis2">
<g id="ytick1">
<g id="line2d15">
<defs><path id="m3400efa6b1638b3fea9e19e898273957" d="M0.000000 0.000000L4.000000 0.000000"/></defs>
<g ><use style="fill: none; stroke: #000000; stroke-width: 0.500000; stroke-linejoin: round; stroke-linecap: butt;  opacity: 1.000000" xlink:href="#m3400efa6b1638b3fea9e19e898273957" x="73.125000" y="396.900000"/>
</g></g>
<g id="line2d16">
<defs><path id="m20b58b2501143cb5e0a5e8f1ef6f1643" d="M0.000000 0.000000L-4.000000 0.000000"/></defs>
<g ><use style="fill: none; stroke: #000000; stroke-width: 0.500000; stroke-linejoin: round; stroke-linecap: butt;  opacity: 1.000000" xlink:href="#m20b58b2501143cb5e0a5e8f1ef6f1643" x="526.500000" y="396.900000"/>
</g></g>
<g id="text9">
<g style="fill: #000000; opacity: 1.000000" transform="translate(43.984375,401.267188)scale(0.120000)">
<use xlink:href="#c_7a2040fe3b94fcd41d0a72c84e93b115"/>
<use xlink:href="#c_ed3e21196fb739f392806f09ca0594ef" x="63.623047"/>
<use xlink:href="#c_7a2040fe3b94fcd41d0a72c84e93b115" x="95.410156"/>
<use xlink:href="#c_7a2040fe3b94fcd41d0a72c84e93b115" x="159.033203"/>
</g>
</g>
</g>
<g id="ytick2">
<g id="line2d17">
<g ><use style="fill: none; stroke: #000000; stroke-width: 0.500000; stroke-linejoin: round; stroke-linecap: butt;  opacity: 1.000000" xlink:href="#m3400efa6b1638b3fea9e19e898273957" x="73.125000" y="308.700000"/>
</g></g>
<g id="line2d18">
<g ><use style="fill: none; stroke: #000000; stroke-width: 0.500000; stroke-linejoin: round; stroke-linecap: butt;  opacity: 1.000000" xlink:href="#m20b58b2501143cb5e0a5e8f1ef6f1643" x="526.500000" y="308.700000"/>
</g></g>
<g id="text10">
<defs>
<path id="c_1260a2df50f305f3db244e29828f968e" d="M10.796875 -72.906250l38.718750 0.000000l0.000000 8.312500l-29.687500 0.000000l0.000000 17.859375q2.140625 -0.734375 4.281250 -1.093750q2.156250 -0.359375 4.312500 -0.359375q12.203125 0.000000 19.328125 6.687500q7.140625 6.687500 7.140625 18.109375q0.000000 11.765625 -7.328125 18.296875q-7.328125 6.515625 -20.656250 6.515625q-4.593750 0.000000 -9.359375 -0.781250q-4.750000 -0.781250 -9.828125 -2.343750l0.000000 -9.921875q4.390625 2.390625 9.078125 3.562500q4.687500 1.171875 9.906250 1.171875q8.453125 0.000000 13.375000 -4.437500q4.937500 -4.437500 4.937500 -12.062500q0.000000 -7.609375 -4.937500 -12.046875q-4.921875 -4.453125 -13.375000 -4.453125q-3.953125 0.000000 -7.890625 0.875000q-3.921875 0.875000 -8.015625 2.734375z"/>
</defs>
<g style="fill: #000000; opacity: 1.000000" transform="translate(44.234375,313.067187)scale(0.120000)">
<use xlink:href="#c_7a2040fe3b94fcd41d0a72c84e93b115"/>
<use xlink:href="#c_ed3e21196fb739f392806f09ca0594ef" x="63.623047"/>
<use xlink:href="#c_7a2040fe3b94fcd41d0a72c84e93b115" x="95.410156"/>
<use xlink:href="#c_1260a2df50f305f3db244e29828f968e" x="159.033203"/>
</g>
</g>
</g>
<g id="ytick3">
<g id="line2d19">
<g ><use style="fill: none; stroke: #000000; stroke-width: 0.500000; stroke-linejoin: round; stroke-linecap: butt;  opacity: 1.000000" xlink:href="#m3400efa6b1638b3fea9e19e898273957" x="73.125000" y="220.500000"/>
</g></g>
<g id="line2d20">
<g ><use style="fill: none; stroke: #000000; stroke-width: 0.500000; stroke-linejoin: round; stroke-linecap: butt;  opacity: 1.000000" xlink:href="#m20b58b2501143cb5e0a5e8f1ef6f1643" x="526.500000" y="220.500000"/>
</g></g>
<g id="text11">
<g style="fill: #000000; opacity: 1.000000" transform="translate(43.984375,224.867187)scale(0.120000)">
<use xlink:href="#c_7a2040fe3b94fcd41d0a72c84e93b115"/>
<use xlink:href="#c_ed3e21196fb739f392806f09ca0594ef" x="63.623047"/>
<use xlink:href="#c_42baa63129a918535c52adb20d687ea7" x="95.410156"/>
<use xlink:href="#c_7a2040fe3b94fcd41d0a72c84e93b115" x="159.033203"/>
</g>
</g>
</g>
<g id="ytick4">
<g id="line2d21">
<g ><use style="fill: none; stroke: #000000; stroke-width: 0.500000; stroke-linejoin: round; stroke-linecap: butt;  opacity: 1.000000" xlink:href="#m3400efa6b1638b3fea9e19e898273957" x="73.125000" y="132.300000"/>
</g></g>
<g id="line2d22">
<g ><use style="fill: none; stroke: #000000; stroke-width: 0.500000; stroke-linejoin: round; stroke-linecap: butt;  opacity: 1.000000" xlink:href="#m20b58b2501143cb5e0a5e8f1ef6f1643" x="526.500000" y="132.300000"/>
</g></g>
<g id="text12">
<g style="fill: #000000; opacity: 1.000000" transform="translate(44.234375,136.667187)scale(0.120000)">
<use xlink:href="#c_7a2040fe3b94fcd41d0a72c84e93b115"/>
<use xlink:href="#c_ed3e21196fb739f392806f09ca0594ef" x="63.623047"/>
<use xlink:href="#c_42baa63129a918535c52adb20d687ea7" x="95.410156"/>
<use xlink:href="#c_1260a2df50f305f3db244e29828f968e" x="159.033203"/>
</g>
</g>
</g>
<g id="ytick5">
<g id="line2d23">
<g ><use style="fill: none; stroke: #000000; stroke-width: 0.500000; stroke-linejoin: round; stroke-linecap: butt;  opacity: 1.000000" xlink:href="#m3400efa6b1638b3fea9e19e898273957" x="73.125000" y="44.100000"/>
</g></g>
<g id="line2d24">
<g ><use style="fill: none; stroke: #000000; stroke-width: 0.500000; stroke-linejoin: round; stroke-linecap: butt;  opacity: 1.000000" xlink:href="#m20b58b2501143cb5e0a5e8f1ef6f1643" x="526.500000" y="44.100000"/>
</g></g>
<g id="text13">
<g style="fill: #000000; opacity: 1.000000" transform="translate(43.984375,48.467187)scale(0.120000)">
<use xlink:href="#c_7a2040fe3b94fcd41d0a72c84e93b115"/>
<use xlink:href="#c_ed3e21196fb739f392806f09ca0594ef" x="63.623047"/>
<use xlink:href="#c_ed3f3ed3ebfbd18bcb9c012009a68ad1" x="95.410156"/>
<use xlink:href="#c_7a2040fe3b94fcd41d0a72c84e93b115" x="159.033203"/>
</g>
</g>
</g>
<g id="text14">
<defs>
<path id="c_3b515ad41f960e225ec85275856806ca" d="M8.500000 -21.578125l0.000000 -33.109375l8.984375 0.000000l0.000000 32.765625q0.000000 7.765625 3.015625 11.656250q3.031250 3.875000 9.093750 3.875000q7.265625 0.000000 11.484375 -4.640625q4.234375 -4.640625 4.234375 -12.656250l0.000000 -31.000000l8.984375 0.000000l0.000000 54.687500l-8.984375 0.000000l0.000000 -8.406250q-3.265625 4.984375 -7.593750 7.406250q-4.312500 2.421875 -10.031250 2.421875q-9.421875 0.000000 -14.312500 -5.859375q-4.875000 -5.859375 -4.875000 -17.140625M31.109375 -56.000000z"/>
<path id="c_fe791a90f5471e2ab20a5ed41a7fa451" d="M54.890625 -33.015625l0.000000 33.015625l-8.984375 0.000000l0.000000 -32.718750q0.000000 -7.765625 -3.031250 -11.609375q-3.031250 -3.859375 -9.078125 -3.859375q-7.281250 0.000000 -11.484375 4.640625q-4.203125 4.625000 -4.203125 12.640625l0.000000 30.906250l-9.031250 0.000000l0.000000 -54.687500l9.031250 0.000000l0.000000 8.500000q3.234375 -4.937500 7.593750 -7.375000q4.375000 -2.437500 10.093750 -2.437500q9.421875 0.000000 14.250000 5.828125q4.843750 5.828125 4.843750 17.156250"/>
<path id="c_01d93a582460e35a7945ca50d148ffeb" d="M34.281250 -27.484375q-10.890625 0.000000 -15.093750 2.484375q-4.203125 2.484375 -4.203125 8.500000q0.000000 4.781250 3.156250 7.593750q3.156250 2.796875 8.562500 2.796875q7.484375 0.000000 12.000000 -5.296875q4.515625 -5.296875 4.515625 -14.078125l0.000000 -2.000000zM52.203125 -31.203125l0.000000 31.203125l-8.984375 0.000000l0.000000 -8.296875q-3.078125 4.968750 -7.671875 7.343750q-4.593750 2.375000 -11.234375 2.375000q-8.390625 0.000000 -13.359375 -4.718750q-4.953125 -4.718750 -4.953125 -12.625000q0.000000 -9.218750 6.171875 -13.906250q6.187500 -4.687500 18.437500 -4.687500l12.609375 0.000000l0.000000 -0.890625q0.000000 -6.203125 -4.078125 -9.593750q-4.078125 -3.390625 -11.453125 -3.390625q-4.687500 0.000000 -9.140625 1.125000q-4.437500 1.125000 -8.531250 3.375000l0.000000 -8.312500q4.921875 -1.906250 9.562500 -2.843750q4.640625 -0.953125 9.031250 -0.953125q11.875000 0.000000 17.734375 6.156250q5.859375 6.140625 5.859375 18.640625"/>
</defs>
<g style="fill: #000000; opacity: 1.000000" transform="translate(38.984375,248.085937)rotate(-90.0)scale(0.120000)">
<use xlink:href="#c_d650c37394b681142a10dfc54356d478"/>
<use xlink:href="#c_3b515ad41f960e225ec85275856806ca" x="54.980469"/>
<use xlink:href="#c_6ec8d5749226675394676a5d2a3b468b" x="118.359375"/>
<use xlink:href="#c_6ec8d5749226675394676a5d2a3b468b" x="157.722656"/>
<use xlink:href="#c_0bce5afba2dc6b9024b26277c38ad8e8" x="196.585938"/>
<use xlink:href="#c_fe791a90f5471e2ab20a5ed41a7fa451" x="258.109375"/>
<use xlink:href="#c_0f8c41144cfbf448378cb6fd1cc8e549" x="321.488281"/>
<use xlink:href="#c_7efa9804c2b4c09a4b614b91fdebee3d" x="360.697266"/>
<use xlink:href="#c_01d93a582460e35a7945ca50d148ffeb" x="399.710938"/>
<use xlink:href="#c_e96974be642f6eac0427d72f9cec6c19" x="460.990234"/>
</g>
</g>
</g>
<g id="patch3">
<path style="fill: none; stroke: #000000; stroke-width: 1.000000; stroke-linejoin: round; stroke-linecap: square;  opacity: 1.000000"  d="M73.125000 44.100000L526.500000 44.100000"/>
</g>
<g id="patch4">
<path style="fill: none; stroke: #000000; stroke-width: 1.000000; stroke-linejoin: round; stroke-linecap: square;  opacity: 1.000000"  d="M526.500000 396.900000L526.500000 44.100000"/>
</g>
<g id="patch5">
<path style="fill: none; stroke: #000000; stroke-width: 1.000000; stroke-linejoin: round; stroke-linecap: square;  opacity: 1.000000"  d="M73.125000 396.900000L526.500000 396.900000"/>
</g>
<g id="patch6">
<path style="fill: none; stroke: #000000; stroke-width: 1.000000; stroke-linejoin: round; stroke-linecap: square;  opacity: 1.000000"  d="M73.125000 396.900000L73.125000 44.100000"/>
</g>
<g id="text15">
<defs>
<path id="c_e3864de5dabf2f8dd9eee74726882ec1" d="M45.406250 -27.984375q0.000000 -9.765625 -4.031250 -15.125000q-4.015625 -5.375000 -11.296875 -5.375000q-7.218750 0.000000 -11.250000 5.375000q-4.031250 5.359375 -4.031250 15.125000q0.000000 9.718750 4.031250 15.093750q4.031250 5.375000 11.250000 5.375000q7.281250 0.000000 11.296875 -5.375000q4.031250 -5.375000 4.031250 -15.093750M54.390625 -6.781250q0.000000 13.953125 -6.203125 20.765625q-6.187500 6.812500 -18.984375 6.812500q-4.734375 0.000000 -8.937500 -0.703125q-4.203125 -0.703125 -8.156250 -2.171875l0.000000 -8.734375q3.953125 2.140625 7.812500 3.156250q3.859375 1.031250 7.859375 1.031250q8.843750 0.000000 13.234375 -4.609375q4.390625 -4.609375 4.390625 -13.937500l0.000000 -4.453125q-2.781250 4.843750 -7.125000 7.234375q-4.343750 2.390625 -10.406250 2.390625q-10.046875 0.000000 -16.203125 -7.656250q-6.156250 -7.671875 -6.156250 -20.328125q0.000000 -12.687500 6.156250 -20.343750q6.156250 -7.671875 16.203125 -7.671875q6.062500 0.000000 10.406250 2.390625q4.343750 2.390625 7.125000 7.218750l0.000000 -8.296875l8.984375 0.000000z"/>
<path id="c_7b26b13f539f13a4c64eef23b6952d29" d="M4.890625 -31.390625l26.312500 0.000000l0.000000 8.000000l-26.312500 0.000000z"/>
<path id="c_5099edb83619131346ae654950954dea" d="M9.421875 -75.984375l8.984375 0.000000l0.000000 75.984375l-8.984375 0.000000z"/>
</defs>
<g style="fill: #000000; opacity: 1.000000" transform="translate(182.539062,36.193750)scale(0.144000)">
<use xlink:href="#c_d650c37394b681142a10dfc54356d478"/>
<use xlink:href="#c_74d54c94aa871ec39e2bc6697dde6c00" x="54.980469"/>
<use xlink:href="#c_01d93a582460e35a7945ca50d148ffeb" x="118.359375"/>
<use xlink:href="#c_6ec8d5749226675394676a5d2a3b468b" x="179.638672"/>
<use xlink:href="#c_e3864de5dabf2f8dd9eee74726882ec1" x="219.001953"/>
<use xlink:href="#c_0bce5afba2dc6b9024b26277c38ad8e8" x="282.478516"/>
<use xlink:href="#c_d41d8cd98f00b204e9800998ecf8427e" x="344.001953"/>
<use xlink:href="#c_d650c37394b681142a10dfc54356d478" x="375.789062"/>
<use xlink:href="#c_3b515ad41f960e225ec85275856806ca" x="430.769531"/>
<use xlink:href="#c_6ec8d5749226675394676a5d2a3b468b" x="494.148438"/>
<use xlink:href="#c_6ec8d5749226675394676a5d2a3b468b" x="533.511719"/>
<use xlink:href="#c_0bce5afba2dc6b9024b26277c38ad8e8" x="572.375000"/>
<use xlink:href="#c_fe791a90f5471e2ab20a5ed41a7fa451" x="633.898438"/>
<use xlink:href="#c_0f8c41144cfbf448378cb6fd1cc8e549" x="697.277344"/>
<use xlink:href="#c_d41d8cd98f00b204e9800998ecf8427e" x="736.486328"/>
<use xlink:href="#c_73b12fe3945075d29fe0cc9a468fa31e" x="768.273438"/>
<use xlink:href="#c_f05dd90d41f04bb96ef1ca503cc2044b" x="803.478516"/>
<use xlink:href="#c_6ec8d5749226675394676a5d2a3b468b" x="864.660156"/>
<use xlink:href="#c_d41d8cd98f00b204e9800998ecf8427e" x="905.773438"/>
<use xlink:href="#c_01d93a582460e35a7945ca50d148ffeb" x="937.560547"/>
<use xlink:href="#c_d41d8cd98f00b204e9800998ecf8427e" x="998.839844"/>
<use xlink:href="#c_f05dd90d41f04bb96ef1ca503cc2044b" x="1030.626953"/>
<use xlink:href="#c_fe791a90f5471e2ab20a5ed41a7fa451" x="1091.808594"/>
<use xlink:href="#c_0bce5afba2dc6b9024b26277c38ad8e8" x="1155.187500"/>
<use xlink:href="#c_7b26b13f539f13a4c64eef23b6952d29" x="1216.710938"/>
<use xlink:href="#c_d650c37394b681142a10dfc54356d478" x="1252.794922"/>
<use xlink:href="#c_0bce5afba2dc6b9024b26277c38ad8e8" x="1307.775391"/>
<use xlink:href="#c_5099edb83619131346ae654950954dea" x="1369.298828"/>
<use xlink:href="#c_5099edb83619131346ae654950954dea" x="1397.082031"/>
<use xlink:href="#c_d41d8cd98f00b204e9800998ecf8427e" x="1424.865234"/>
<use xlink:href="#c_5099edb83619131346ae654950954dea" x="1456.652344"/>
<use xlink:href="#c_6a63bda47b2f3da1cec6aadd80692cfe" x="1484.435547"/>
<use xlink:href="#c_f15a64fcd463ef4629c48bab42cde24c" x="1512.218750"/>
<use xlink:href="#c_f05dd90d41f04bb96ef1ca503cc2044b" x="1575.695312"/>
</g>
</g>
<g id="legend1">
<g id="patch7">
<path style="fill: #ffffff; stroke: #000000; stroke-width: 1.000000; stroke-linejoin: round; stroke-linecap: square;  opacity: 1.000000"  d="M80.325000 389.700000L201.868125 389.700000L201.868125 346.589375
L80.325000 346.589375L80.325000 389.700000z"/>
</g>
<g id="line2d25">
<path style="fill: none; stroke: #0000ff; stroke-width: 1.000000; stroke-linejoin: round; stroke-linecap: square;  opacity: 1.000000"  d="M90.405000 357.950000L110.565000 357.950000"/>
</g>
<g id="line2d26">
</g>
<g id="text16">
<defs>
<path id="c_d821beae607506e87470f334d9ff47af" d="M45.406250 -46.390625l0.000000 -29.593750l8.984375 0.000000l0.000000 75.984375l-8.984375 0.000000l0.000000 -8.203125q-2.828125 4.875000 -7.156250 7.250000q-4.312500 2.375000 -10.375000 2.375000q-9.906250 0.000000 -16.140625 -7.906250q-6.218750 -7.921875 -6.218750 -20.812500q0.000000 -12.890625 6.218750 -20.796875q6.234375 -7.906250 16.140625 -7.906250q6.062500 0.000000 10.375000 2.375000q4.328125 2.359375 7.156250 7.234375M14.796875 -27.296875q0.000000 9.906250 4.078125 15.546875q4.078125 5.640625 11.203125 5.640625q7.125000 0.000000 11.218750 -5.640625q4.109375 -5.640625 4.109375 -15.546875q0.000000 -9.906250 -4.109375 -15.546875q-4.093750 -5.640625 -11.218750 -5.640625q-7.125000 0.000000 -11.203125 5.640625q-4.078125 5.640625 -4.078125 15.546875"/>
</defs>
<g style="fill: #000000; opacity: 1.000000" transform="translate(126.405000,362.990000)scale(0.144000)">
<use xlink:href="#c_3b515ad41f960e225ec85275856806ca"/>
<use xlink:href="#c_fe791a90f5471e2ab20a5ed41a7fa451" x="63.378906"/>
<use xlink:href="#c_73b12fe3945075d29fe0cc9a468fa31e" x="126.757812"/>
<use xlink:href="#c_6a63bda47b2f3da1cec6aadd80692cfe" x="161.962891"/>
<use xlink:href="#c_5099edb83619131346ae654950954dea" x="189.746094"/>
<use xlink:href="#c_0f8c41144cfbf448378cb6fd1cc8e549" x="217.529297"/>
<use xlink:href="#c_0bce5afba2dc6b9024b26277c38ad8e8" x="256.738281"/>
<use xlink:href="#c_6ec8d5749226675394676a5d2a3b468b" x="318.261719"/>
<use xlink:href="#c_0bce5afba2dc6b9024b26277c38ad8e8" x="357.125000"/>
<use xlink:href="#c_d821beae607506e87470f334d9ff47af" x="418.648438"/>
</g>
</g>
<g id="line2d27">
<path style="fill: none; stroke: #ff0000; stroke-width: 1.000000; stroke-linejoin: round; stroke-linecap: square;  opacity: 1.000000"  d="M90.405000 378.696875L110.565000 378.696875"/>
</g>
<g id="line2d28">
</g>
<g id="text17">
<g style="fill: #000000; opacity: 1.000000" transform="translate(126.405000,383.736875)scale(0.144000)">
<use xlink:href="#c_8e0810ad13fe20a2a87a2619799b154d"/>
<use xlink:href="#c_4653c6dfde66c7610eae0911760d3490" x="52.099609"/>
<use xlink:href="#c_f05dd90d41f04bb96ef1ca503cc2044b" x="149.511719"/>
<use xlink:href="#c_f05dd90d41f04bb96ef1ca503cc2044b" x="210.693359"/>
<use xlink:href="#c_0f8c41144cfbf448378cb6fd1cc8e549" x="271.875000"/>
<use xlink:href="#c_74d54c94aa871ec39e2bc6697dde6c00" x="311.083984"/>
<use xlink:href="#c_0bce5afba2dc6b9024b26277c38ad8e8" x="374.462891"/>
<use xlink:href="#c_d821beae607506e87470f334d9ff47af" x="435.986328"/>
</g>
</g>
</g>
</g>
</g>
</svg>
